<mxfile host="app.diagrams.net" modified="2023-09-30T19:36:01.306Z" agent="Mozilla/5.0 (Windows NT 10.0; Win64; x64) AppleWebKit/537.36 (KHTML, like Gecko) Chrome/117.0.0.0 Safari/537.36" etag="_9c3baV_Z9tFXHfCeUFy" version="22.0.0" type="github">
  <diagram name="Page-1" id="ONeLMj_mAQufLSO7YQGh">
    <mxGraphModel dx="1434" dy="758" grid="1" gridSize="10" guides="1" tooltips="1" connect="1" arrows="1" fold="1" page="1" pageScale="1" pageWidth="850" pageHeight="1100" math="0" shadow="0">
      <root>
        <mxCell id="0" />
        <mxCell id="1" parent="0" />
        <mxCell id="fQiEGHonLtwZmzi1E5y7-1" value="" style="shape=image;verticalLabelPosition=bottom;labelBackgroundColor=default;verticalAlign=top;aspect=fixed;imageAspect=0;image=data:image/png,iVBORw0KGgoAAAANSUhEUgAAAJMAAAB1CAYAAABK+NOKAAAAAXNSR0IArs4c6QAAAARnQU1BAACxjwv8YQUAAAAJcEhZcwAADsMAAA7DAcdvqGQAAAASdEVYdFNvZnR3YXJlAEdyZWVuc2hvdF5VCAUAAA9ESURBVHhe7Z3bbxTXHcfzt/ihUqSmkRIpD8lLpD6g5CGpGiUNIheTCCkhokHhEoGUl22Ukoe2ooSKSoSqDbQlMaSJREmAkBtpjIElEION47UB3/e+67WNsc2v53duc2bm7OysPYN37N9X+uGz5zZn5nz2d87MnD3cAxbNz8/DzMws+7sgYxqrLzMsQ42F9c7cCl9/s+1ppbagwranldqCaqY92BaCKea2oAgmgskqgskuDhNm9Nrs7G2YmpqB2dtzMDc3D7XaDFQnpwOtb2DYGm+zcmUKCqUqlKtT1nSvlSs1KDaRv5Xagha2Pa3UFjRbeyZr03CbMWFj5h4kz2s1BpJq6Mh4HkpVFi7XWMWTZKvYkAEEa5QxUShVfMzYPRPzSBVWaCJXgnypBrnipMsmchWYyFcXbdlC1VcnWXIsz8DK5kswPXPLxUzdOVO+UOEkmpUMjRbg8tVBuNwzCGcv9i7aLlz+Ca5cuwnj+YqrfrLkWJGNXJXqpCRGzplk2CVMQPKK5SldeGSiyCHA4W+pWlhYgLGJAqQv97saSJYcK/BpT0X2aCiYHM90LTMCw6M5mSMa/dhzHYbGCq5GkiXDCmz6s2iYuntv8MlXlBoaybG7i1FXI8mSYUuC6dKVwcAhrre3F3bt2gWbNm2C559/HrZu3QrvvfceFAoFmcOv60NZ+GmQYEqixQJTrVaDjRs3QltbG7f7778fnnzySf353nvvhX379sncbhFMybVYYFq3bp0GZ8+ePTIWoFKpwIsvvqjT9u/fL1McEUzJtchheuuttzQsr7/+Oo87cOAA91Rff/01TE5OwkMPPaTzYJwpgim5ZoUJ//Ha7OwcTOSKgTCl02kNCdpnn30Gn3zyiSuuWCzC9u3b9edHHnmED4tKBFNyDWHKF8suZu7BF4Vew0fj+BwoCKbOzk4XOMePH4eDBw+64kZGRmDnzp368wMPPEAwrRBDmHD0Mpmp86K3sWdCvfTSSxqUzZs382Ftw4YN8OCDD8Lu3bthamoKHn74YZ3ngw8+kCWFCKbkmuOZHGaWNGfK5/OwZs0aDcvevXtlCkC1WoX169frtB07dsgURwRTci3yCTgK79peffVVDc2jjz7KhzZ8RICf8dGAeZdnimBKrsUCk1J3dze/u3v88cfhvvvug7Vr1/Khjh5arkyLFabFiGBKri0JJnw3h2ucotTwaB76CKZE2pJgQg9yY3hC5ohGl64MwDCtGkikLQmm8VwF0j/289WX/HZwYfGGyzxvDGf5QjuzgWTJsSXBhDYyUYKrfTfhMvMoneneRdul7gxfHzVBKy0Ta0uGiYxMWdMw5YvMc+DifzIyrxWrfpjwR3le6+0fgv7rI1CbvgV37twhI/PZFGNj4Oaoi5lAz4QFSCSb8GdOTQ1zBBOpnmKHqdLbCwu3CMDVoFhhKnd3w5nnnoPzW7YQUKtAscGEIP1v/XqYYZ5p6PBhOP/GGwTUClcsMCFI37/8Msz09QEUi9xGjh6N0EOlIdXWDh1Z+VEq29EObak0C9nTSfEqcpgQpM4NG+BWJsMhqnR1wfzYGA+PffppREA1gom0HIoUJgTp7CuvwOz16xye3KlTcPqJJ+Dca6/puPFjx+DCtm0WoAQg7e1iQV1bewcgKyYgXs9TP68JG4bd+UjxKFKYvn32WZi+epVDM93TA1889pi2H3CJLotH69u9G/rff1+WUhKdLrhxwvVhCsqLcQKmdIpBxOOy0MHgE2VIcShSmCoMoHObNsHc8DCHZuTIEQ7Sdy+8wCfiGJf/8stAzyS8iej4dvahPkxBeVW6k0aKX1aY1K8LTMMt5fDXKWHmTOc3b9ZADX/4oQuk9PbtdeZMwsOIjhdh5IIDIocnx8sE5PXA5vVMBFZ8Qpjcv04J2IYQfzfXCCaUAmp+dJRDhFY8cyYAJJQAQM+DOABM2Q5ox88IT7sbFpoztZYQJhy9TGbqbkOIi+DCwIRCoNJbt8LC+LgA6c03G9zFmQCQkiifZwrahjDMowFTpcuX4cKWLXBx584GIKEIpqQr0gm4TTgpbwwSaSUodphIq0cEEykyEUykyNQ0TGMTRb7DLhmZ1/DREXkmUiSiYY4UmQgmUmSywoT/eE3tHEcwkeoJYWpqT8sgmMZqC7Dn/CT8qSvYPuyZliVIK0kIE45eJjOBe1oGwfSHzirsP1+E0z+Vtb39VR4OXXTHrfs4C7np8P9To1vNv3ZxXgAvRvSaJ6wcz+Qws+g50zvfVaDrRoXvXansnW/ycCZTcsVtO5mHm5V5WapZEUytqkgn4AjTns4i907KNh7Lwe+/KbjiXmFxNpj42iO13IT3nliDpOIED2bnYlimK1iMJSttbSmWQ8LU3q7jMauIk0tS0in3mimZz1kvJY7nXk9ltoFgQ0UO09/SJTjaXdT2j3NjcPiHnCvutf/aYBJg1HMgtrVK2LkmdD5IpMw4HebQeeuxtUEcL5Uy6zUBMsOrW5HD5B3mrg0MsYl7zhVXb5jjHS29gvI0/jjVeW6vhWYCIeJEJ/M6FCHohaTHEhB1uGCwH09+JpgCFTlMZ67cgIs9GW2dP/TCuR/7XHG7vhwNnjOpYccYfhwgnM5zPIpNHm/lGvIkFLx+XLGpIDGkj62OZy77FYDx5hgebrUrcpjOXi9DqexYT+YmDI9NuOLePGkb5tyexutl+JJdV+diEf/8iEPgiRMAuedMQqJ+B8h6bZDH43U7Xo3n4/USTKiWGubuvgxQSEtWpDAdz8zA00dyLnv2SBae6XDHrf04L0sso5RXsw1xpEUpUphIq1tWmMztB80t5XAbQoKJVE8IE21DSIpENMyRIlPTMBXLVf7/pZCRea1YsmzdLMMuOTBNwmRtmozMZ8gGDXOkSERzJlJkIphIkSk2mH77/TFYc/zv2n557ACcGMnI1BiET7Sdl24hlIVsnUff+C6vqap8SkMqxifr2XoNj1PpVMBLdaHYYPrN6cNwA2a1/Wc8A7uvdMrUGNQkTEHAtDRMITp1uRQbTE98fhCOjvVre/fq9w1gwg5IMRNv40VnYpx424+f+dt/fJ9mvJx1vb3nhYyONADT+fhbf5ZH12OuFHBWGYiq1CoBe51a6j0fM73SwHcudVYkGOfntJGZPIb7nJ06MNlJM46REvWZwGG9sjod9h/LKPuHHc76Lzw3PPfFeibzhwTO4vBw2xAq/fyjP8MvPtqj7Wf/+iNsO/u5TLUJO1hBojoP40QH65Myw2bHYsfzsCrLpNLNsvKiaGDMOqR4WkrVh7LUacjpLOxsBas8F53fGFZ1nHF+Zro+npGuyuhONdqkj4t/nS+aEp6PLsPrsx3LLKvqM8qGhCnybQhR3mFu/+ClEJ7Je3GMONfJyHQzzuwgVcbXAY40TEzOt1RcTExzvrE8h79OLefCO7Ln1/Xqus1zZmLt1OkY7zsWkzoXTFN5uWHbbW1hwrxYH9av6vMey3Me4vpgnATMcg29Qphw9DKZiWQbwqdO/BO+Gx7Q9m76q8Yw6W+pusieTvGGzYutL5RRRsV5y7I4EyYtecFUmuNxLHUacvJhGC++p92iMqczbG01z0W3l6V7r4muxyirVQcmHo/eVnoZ67E8ZXk8y6+OYba/jnyeKaptCJ8+9W/omSpp23vtXAjPJMZs/LaIc3VfMOebrdwxnqP6drGy8gLZ4nxlsUMx3MMuGo9HExfTAQ07U+S31ekI88l0nma0W3ecmQfnU5hunh92pkxnnYpzLtEEbKeI59VgfTLsnBMa5q8Hk8qrrpvtWN6yIo8+1ZAwxTIBf+aLw5CZn9L218zFJoY50vIL4beDWU+xwfTrE4fg9ECPtre7ThJMiZHwoo08kVexwdT8BJyUdMUG069OHnI9Z9qRPg17r3bJVNJKVGwwHR7ohtTFr7T9jlmmWpSppJWo2GAirT4lFCbnNlbfshuPC8xbZj6JDHFbS1q6kgkTg0M/c1EPQoxwOuW/pbXFkaKVFSb8x2vxb0MobkeVR1GMKM/TzmAQsNR5MKdhMh7IGd6KvFP8Qpgi24ZwaTIekikwDG/Dhy4etj2PQoAUOJ56VF6jLlI8Qphw9DKZWfQ2hEuTAYnqeNObWAATQngMD+SSCZ4NQlKUcjyTw8wyzZksMJngMLD8nsky5GEZbz3eMCkWtdAE3AITxvpesBoAIWByjiXyiPLO3ZwBGs2ZYlcLwWSR1TOJcLNOhu7m4ldrw8Rke47k8k5hRF7prqjlYSIlRwQTKTI1DVOhVIVytUZG5jPc1KQpmIrlmnXTAjKyUoU2riBFJJozkSKTFSZzL0tzf0La05IUJIQplj0t7/rGFaRlV2zD3F3fuIK07IoNpuY3rmDK4u9K64ml1U2MakVAjPU0eAq/LNvkRKzYYFrUxhUBHYkvb+u/j0sATEFaIa977tow1+h3c/pNPyeGdYZaCeD6jO/nzJWU6oeCwZ3nrCIwFtDhKgQWh9XrdIyT9Thl1KpPdlxjuxp/ur0eLQUM+6vKOT/pduoJrFf/rLxx+5ZDscH01IlD8O1Qv7ZdF06H/kUvvtxVF1KF8eKpi6ZHBL2qIAAmzKPSdBjhVC+KjbJmuq5PvVTGvyaM3nRbPYZMmOTJ6XPSnqlBvViWhxu1b3kUG0y4cUXvdFnbX0JtXIEXSF0cKXmhHZhEJ6hvpX/BnEe6o1B1Ol5VrOIxTtXPTXlE2S5bOm6A4a1HfuJS7TDa44MpbL2N2rdMig0m3Liif25K274mNq4I9EwmHCzcECa88CpNh838RtiarmR2li3dVo+hMDCFrrdR+5ZHscHEN64Y7NX2dtepBjDhxWDfMgWH+tbxzxiFcw38Bpppag5hu7iOHE+G5THGnV+n15kz2bar8afb69EKggkhYeUwHLZef74Whcn8IYGzOLy5bQhp44qoZIBv83gtJIQplm0I7/7GFdKz6W+rMOUFkizTCylH3YpCmHD0MpmJZBtC2rhi9cnnmRptQ1gLCRNp9WmqmQl4rlCGam1axpBIbqkFckqBMJUrNQZUibmzWRlLIgnhHClXqLimQYEw4e/Hx7NFyDIPNTyWhxEyMmbIAk6Bxtnd/p07dyQxIWC6PTcPk2yWjj8swAl5kA3eHLPG2wwhHWV3i/jXlu41nn88fP5Wagta2Pa0UlvQbO1BFnD6Y4KEaggTztLDClfbhRXWi64ybP3NtqeV2oIK255WaguqmfbMz8/D/wEocHrsutgVxgAAAABJRU5ErkJggg==;" vertex="1" parent="1">
          <mxGeometry x="50" y="60" width="147" height="117" as="geometry" />
        </mxCell>
        <mxCell id="fQiEGHonLtwZmzi1E5y7-2" value="" style="shape=image;verticalLabelPosition=bottom;labelBackgroundColor=default;verticalAlign=top;aspect=fixed;imageAspect=0;image=data:image/png,iVBORw0KGgoAAAANSUhEUgAAAJEAAADdCAYAAAC7QpA0AAAAAXNSR0IArs4c6QAAAARnQU1BAACxjwv8YQUAAAAJcEhZcwAADsMAAA7DAcdvqGQAAAASdEVYdFNvZnR3YXJlAEdyZWVuc2hvdF5VCAUAAB0mSURBVHhe7V3rk1zFdRcfUvA3uFzlhKp8COU8qlwVF3EocBLHJpjYAcWVsgWsBEJgY5MCvqSSVKqmUhEkTmHK/oIL2+HhBKxFSEYYMOiFHggkVhJIWj12V4/VPmZ2dva92tUKdfp09+k+996eO/fO9GhnZs+POtye06e7z+3+3b6902daq4TB6f6LJlUbV658Ki4tLKprFly5ckVcupTdvpV8AWT1p5V8AeTxpxFfmEQZwCTyw5IICoOc7BtU1yyyuHhZzM5dEouXl7z5cVlcXNL28urLj0sr+QKS1Z9W8gUkjz+N+LIK2AfSe+aCmJmdF2Pjk6I4NiGGRstV5eJIWQyOjKmrLz8uee3PXSx69T5pti8gWf1pJV9A8tRfzbZYrojK5IyYn19QPKECnIGrnIk+lWz6VJySU1NxrCImJmfF+MSsGKvMsLBIAs0qEpXl5IJcoZyBq10TnRscVQXilZwbLInevovixJn6pPfMoOg/PyqK49OJulnaR4rlCbEkX10Udk2k/i9xYagkymQGGh2bEoeOnlHvvZKsYLRUqUvg1dh3dli8f+iEuDhaiTjG0j5SmZoVc3LNRJEgEcxEtBCQZ6Q4bnIbByzajhzrj7TB0j5SnphRY0hRk0RHjg+IpaXo9NUojp08L4ZHJyLtsLSH1EWiD3pOiatXr5pcPyqVijhx4oQ4evSoKBaLRlsdR4+fFYPD5Ug7LO0hwUn0zjvviDvuuEPceOONEbn55pvFSy+9ZKySYBK1rwQlUaFQsKS56667xKZNm8Rbb70lHnnkEatfs2aNsY6CSdS+EoxEzz77rCXKPffco3TT09Pi4kVd2caNG23+o48+qnQUTKL2lSAkOnnypCUISG9vr3jjjTfs52eeeUbZ3XTTTVa3detWpUMwidpXgpDoiSeesOQAAaxdu9Z+/sIXvqB0X//6163ulltuUToEk6h9JZVEkADpPzccKRQn0cGDBy05QOCvsp/85Cf284YNG5Td5z//eat77rnnlA7BJGpfARKdGRhSXEH5oOekuuZaE9HZCGYhwM6dO8XmzZvFwsKCeOqpp2w+zEhxMInaV4ItrAGPPfaYJcq3vvUtceDAAdHf368W0qi/++671YI7DiZR+0pQEgHefvttcfvtt1vSoHzpS1/i74k6VIKTCDEwMCC6u7vFiy++KI4dO2a01cEkal9pGonygknUvlIXiWDHHcIrQ+Lo8QExXJyMtMPSHlIXiU71D4kLQ2Mmt3FUJqfF0RMDkTZY2kfqIlGxPC0OH+8XH584K4ZGyiporR4ZHB4TvacviAMf9YqREs9C7Sp1kQhlcGRcnD47LE4PjNQt5+WM5qubpX2kIRKxsICkkggj989dkCQqT4rSOAtLUsoT02J6Zi7yaw/9u7NPxSr4hSTIWUkiUDAYPkxMwc+HZhRXUGCtC9fITMQkYlQDkCg+E53CmcjYqDURk4hRDUCiTAvrPCRarFTEoccfF/NDQ0bD6GQEJxEQ6MCGDeLsL34h9q9bJ+ZNeCyjcxGURIpADz4oKnv2wG+GxNShQ2L//feHm5F6CuLGrm5RMh81SqK760ZR6JFJbz6j2QhGIkWghx4SE/v3KwKhzPT0iPfXrw9DpFokYiwLgpAICPTBww+LqQ8/VMRZOHNGHPrBD8TM0aPq8+zHH6tXnJdIihhdosvEHXV1A0UoMeIzTYotJRmkI3aMZqFhEl2enBQffve7Yvqjj/TMI4mz9zvfEdtvv13svvtuMXXwoNLPHT+uXnWXRkdNSQM12AWh+GLTKSRKswWdIlGPKEjyKF2pW5LOlGE0BWFI9L3viWn52gKyAJl2r16tSLTzzjvFxL59Sj/f26tmq8RsZAdeQg14l+gupZAozRbzbR4YMpqNVBLh0Wm1vmyE1xkQCV9fikhyFirv2KE+Xzp1yk8ggJpRzICrtJtd9GuIzCoptlGSxWciJlQzASTSXzamHLeXZdsDiHTw+98XcxAKK9NLg4OWQB8+8kj1hbUaeLfOUQMvUeruUp+BNF0RkvCaqNUAJKpMzKQft5fnT/yDjz5qibTQ15dOIAAdeEZbws1EZNtDvs7gmvt7IsDi+Lj46PHHRUWuhQ499lg6gQBMorZHwwtrH2BGykQgRkegKSRirCwwiRgNg0nEaBiZSVSuTMs/41hYkgLHUGci0ezcvJibX2BhSUh5YopfZ4zGwGsiRsNgEjEaRiqJIAECx+0xiRjVMD45ne24vTQS/dvuSfH3r45F5M6XS2J1dymi+8ffVkwJRichyOvs26+NqSP0qNy3pSRKlamIDuyaAxo6kgOlblHgHf6GEYxExcp0RNZsLonzpamI7tubW4lEdRKPkUAQEv2DJNHaraWI3PXKqOjaUozoVstXWgIpMUJdUo/hsD0FnQ9SLeZIlY3HFFWLL4p9dnVJwQYYmdC019nh3n4xOTkZ0XlfZ2owTQy0TUdnCTXAETKADYleNOnqJPLFXNM2eFZqBEFItOY1OLCqGJGDx06LCxdHIrp75TopATrovrhpCTUL2dkBCCFtemnYKyGBj0TeENkYccAWZyIsz8iEICT6jiTHwIXhiHzw8WnRf/5iRNe11fPvnqnBMwOs0m6WQN7knolUPi0Xn4l0e0DOxOxjZypGVrTG6ywRYx0lEX7GmcLqFWFAR9ZEhjCgV2uqCPmM3hAH10Hwma65eE2UD4FmojHx5J5yRH6274K8RvV/tyn21AMUifj10c4IQqKBiSvi/YuLNeXk+JIpQcAkanukkgiIA8KHXDHSACTi4/YYDQFIxMftMRqCbybi4/YYuZB5YT00MiYuDrOwJGW0VGn8rzPGykbmmYhJxKgGJhGjYQQn0Qt9R0Xh8C4rPz15yOQwOhVBSVRZvCRWb39ZbB7ps7Ju7xbxyYRn45XRMQhKouH5GfHQ+9vEebFo5V+O7BQ94yPGIgtgs7XBXfSeQnJ3PhRKpWXZooHN4tz7wtgPKjIhvrnsNqpd5ER9/R6URH3TFfG5l/5T/NGmH1u58X9/KLYPDxiLLGhlEgXw7ZpB+lrQe5I9BRdLZdOSWIn4cp8uA1JJhOfvZf3GGmai+Ovs7nf/L30mSjwlbqBsMBohhe+JxJAOGpfUVZBinzJl5NqhdhiC68uXJe3TavxQaRKj5D7H6oPPCnA/WB+m4WrKStH3JuuTeeDDP/23vOoCuk3ZNt63u1fSrvW9IApIEvAF6yCwJMJ7AbEd6vo+D4BEQc5sBACJHtz3a3Hy0pSVB/duTSVRkhT6RgqSQFZPOiRpD4NJiAKZ0EGmg609eQ1ZnRkgrUzmwxXb1Z3vOjniB/pH6yOAh0GpwT/ll/zPNaZ9pvcBaeM/lq3uk7vqOnQ64h+C+Betx/W1qys7gETBzmwEEnXtfFXsudhv5b4dm2qsieDG6ZPlnlLbCThIEonOsYNA4LWPPv1KR+x8+ckOdSSKBLGB6AKkPgIzeHTgIB0pS4gD0G07YuF90PvXNs4np3NXhGoPC8ZA66TprHAzEdk7k68zuAZZWD/0/uuZF9bRTnEdKDNs59OnRoPYQRoGwkMi2qm2jki9yXwoG63HDZi3s6uRyPhoZ1dqJ9M+EikbeDWaRrA92m6SMOCfTkf88/hVbfah6awIurAGEq3btVl8WBy0sm7XqzVfZ9EnkjxZ0MGqY2EQtA10rO0cBNiZfJVHOs12JrWB9RLk08715StftA5fj2oGivkEkqgvBlWOkh3LyrY0eWIkUjZuQNNIJJVmTSRJb0jkfCH3YESXJ31qfSZ9nwPBSfTAe1vEx5MlKw+891rmmYhBYNdPteGbiVTa/HWWGbLN4H+dqf9LXKvXGcPAzCw449SEnYmk0EIpM2MS9c1CgKAkmr+yJP7wV8+Ir775vJU/eOVHYlSSi9G5CEoixsoEk4jRMJhEjIaRmUTwZRIYsrDEZayScnosJEDguD34WntyapaFJSHF8kTjx+0xVjZ4TcRoGEwiRsMITqIvb/tZ5MvGW19/TswsLZrcVkH9385mQcnGeVxLxPfessD1g97bA4nu1+F+W9o330FJ5Nv2yB8eey3QRBLl2mpYZkhf1S4JbJvgdglJ9xSy9dHyk0jeCLK9ZhQiRivKJ64HnxJ7wzH7COiuOdhrEkFoBuhw0F0dxK7QpdoEm2Q+uIpPK7QL9ep8yKZPsjaP1oeAek11Np3uyw55PzjA0Ca0jTMRuVcptF74rPoQ6/M9SJZE7l78feoQlES9k2PiMy9sFL/3yx9agc/bBk8bCw+AROZObZiDHAz02erAzkzX0CF6EKDDZEfQJwl0sWkd6nBEcYOti6A9iTYkOrornsw37YMKfQCyo2/WDxwwWp+D8w/rq+WLLqP7SraLvlTzifQPlNP9Tf1D0DZi9SRsHZo+E9Xcxbedrm9Q3yvcTOxpInbR0Ad5o0AwY6vF3LxBMtDKlFNp0pm0HqWjdhLxfDI4Fugn5KGtEvAhVh8CBwnqx/pq+WLajhBQ2ZH7Qf/QJ6rDqwWQJt5PCFKnB8FJBEFpH4yet7J2p3z15CQRHXQ71RO7BIkSHRKF62hsw0MiWgek4wPnzYeOj9Vj/fR1fBUSKb30S96XKlvLFwVdxgah2fZIu1gPrQ/IqdLUP49ftl2TxvIeBCfR+j1bxbHpspX1e7bkn4ngRs1T6ItCTJBI6fCJxyeXAuxoHu007ExqA9GGkE/tfPlQnPgKCuhwk4b7wTw9O9L6otC29L7ibSXLqjJ2cFNIBLnYP0A87airj9yDttHlnf9+nxGpJALigOT5yRC8zs7J1xjKQ/s5KK1ZsLN0LXhnIp3OVL4GgETBjtsDEt27/Vfinb7jVu5592UmUROgZhaccTLAzdRuqRCZjRoAkCjYcXt1LawZbQ/fTFT3cXvFS3MJEt2/d6v4uDJqLBidiKALa8BDcmF9x5svWFm761WTw+hUBCcRY+WhBUhE/pw1i77kl4OMVkYLkKhHFBJ/Z/p0jFbF8pPIfDlHv+QC8GzUPlh+EpEvv+Ab0sS314yWR2strCWhkESRNKOlsewkqjb78EzUPkglER6d1tx/IIb8dUZYw2ui9gGQKNhxe+HAf521E4BEwY7bCwWehdoLbiYie2fydQbXa7+wZrQlln1hzWh/ZCbR1PScmJmdZ2FJSDntQAf1fwkgEQQdTU7PsrAkpDQ+ya8zRmPgNRGjYTCJGA0jOIna40AHRkgEJZEvUL81D3RghERbkSjUpmwzN3f1sTLkpzjyc+0v38kPDn3IVMfyIZVEkACBMxuzkKiuAx1yoOVJlAhfCfG7rhoEawGMT06HO7Oxvt+dkV187CwYjC74CS8MgOxEE/no/nEYp6tVxkVLptUjPxeMjhDBko1GX+KP/6Sd/gwCbbr7sL/1RxvpQ6+si8ZK0YgF5Yfyk/it6tE+qM/6g/MDy1sdHJVjfPPYlbqhf+Rn2x/hEPx1Bgc6HBg5b6WrxoEO0El00FSadDKdNfBnw1RnB71KGcxPr0cTQKWxPtBiPnmdWJ2vPVsWZyC8ApAorn0HSiJjD0TQlZJybmMa23Q6KKvTPju44n2FRnASrd+7VRyfGbdS60CHyI49dhwZSH/HmaeMPm2RMsn89AFwOlqP1SkyuPqq2qWSCNsjRLEgJMKZIkGiqA8gXd29nvp9dtGHKDSqkWjVqlV1vs72bxPnri5YqXWgA9wcHQyV9g4kqD0zEaJKGUSteuzsQOpBHSWbz87WU4NEKh9eudioRRYSQXHnB8LpoC2d9tl5+ywQfCTa9uZ28Tur6yQRHOjwbt8JK7UPdCBPDnYgGSDVifhE+dZEoNc95y1j8731uLZ9dVudrBvr8h11YwfIrEXo+UdAuui6LDnASl+VRMZHSJv6rS+kTVirgb+qbo/dtSbRN755l/jc7372Wi2sWwPN7GQLGFxLqDDwzUTXGpREn3zyiVizZk39a6J2PtCh6SQys0PwNuis0/SnwA8kEayB4BUGM1DdJAJsPPKeKBzeZeXfD+82OYxOBZDoqaf+S/z5N1eJG7oCkIix8gAzEBBop6QMkOiGG64XX/zizeK2227Lf8gVY+Xh6aefVgR6d0mT6Pc3rhJ/cpuT3MftMVYWgEDXXXedJZBPIjPR0EhZyhgLS0KASLesvk6TRr7arr/+evGn8nV26623So0Br4kYafiPjU/aGYkX1oy6gH/iA5Gu+/J1TCJGfiCJYI0Er7OGSdQ/XRE7R85ZgRgjRmeDfmONqJtEU5cXxG3bfib++fBOK19763lxdnbSWDA6ET4SwfdEX1lT7y4+x1ivOFSbiWCNlJtEffJVdtMrPxJfe/MFK3/c/WOxfXjAWGRErphit2NuEdnRrweeOukOuw8tHgfdTFQjkVojmc+5ZqK/+s0vxJPH91v5yzd+LvaVLhiLLPANYBquFYnSUINgHY6gayIg0Yb9r4v+K3NWNuz7dfrrLL4LjbE7alBgME2eHSSIySH2ZMBV7I6pIx5DhOVtUBlJww6+spGi83wkQqKQOo29La8/JHfVrW754qCbiVQS4dFpef6BmPt2dIsdA71W7t3+Ss3IRuxrDTeAkEcDvyBNdTqWRtvDv+dq6zEkitRNdLo8kAHaQXIAsO1aJDJ5QATVgKuDRhVi+04HZXXaZ0fvrZ0AJAp23F59QWnQseaJVAPhBpB2NA5YRKcA9rp8nDBqZsK6QfRI6cAwmPHwM7VRg1yDRIYw6JPLc76gtEocdDMBJAp23B6Q6IH3togjE0UrD7y3OfNfZ66DdafTJxPTcZ0LRQUymsHyzUQWYC/1si1dDyGFhfPBIQuJ8B4g08HpdNuQ9tn5/W19uJkowHF7QKL7d78mDpWHrazb/WrN15l9Ik0Purhk6HSTZwc6riMDDrML6AyJpMLNclIo+ezvx+xntIO68pLI+ATp2Myms1EnibtMcdDNRPCFdbvGWDcTvpmokxCURHNXlsRtr0e/sf6zrT9V5FrRoLNOO041NRCURADeO1t5CE4ixsoDk4jRMDKTaF7+zb94eYmFJSHjE9PZSFQqT0iZZGFJSHFsgl9njMbAayJGw0glESRAsh63x1iZCHrcHgAOtbr9zRes3Lur2+QwOhVBX2fDl2bEw7Ftj389skt8tMK3PTodYUnk2TtrSox1rlBUz2aq3aDNiLz2FHaTFtLa71bZaEU/4tdq0McrJxGURGemK5Hjh1G2j5w1FiHg22FPQ157D4KQiOz+twiykkchpQ+aPhPV3MUH57ogFAMGmoRu0HALunkp7V2+CcGg9rQO1TOORInwWaxLCRINy8uOLZjOJR3oAt3ozjzqXLiJtZP3BiSCgVKfTRrqVdeC8UEqsEz1tgiI79oeSFqQYux7sN/MfXnuNU4ivCZt3T2q/BiCk+j+916TpBm1UiueSDlsPLM3ATADF9EpOFJAHnY4pqmOBrn5wmd9bbv2dMepNNrTV5MaNE1kO8tjPrWzbaC9awOuOo+0BWXBztuWQzKoDchvdNCmsQciqrbIqwjLxu/Z3runX0CH/RpHU0gEC2mU+3fXiGwkzrknz4j2PjY7ORJFOtJ0erJz9QBFniJsk7SNnUXLJzpQXiP+kSfa6nQlrsMtGfwkUlnknqxdlbYsoF7aJqnfd18q39ZVm0SJ8vSeYmiN11nihv3QA+w6HOxpWUjHdWnhs7628QrAp9jaRWYHA9q5Mq0GlNqhDtrPQyJfW16Q+6tKIlo/pFucRF07usWuc6es3Lf9V5lJpDrQPi0ueB0/68GAIjKtOgw6xORhByZ0pANhQEGHbfo6i/hAjyBGu8hsqeonPsv1DQ6ktTNrIuuXTCcGjfoI9cXrsG050DztWxqJ9FXby8/yYaTtJ/zx9YuZ+VQ6huAkgt+ZnVmctfJgrd+dtRhsp0nAQPk6jRFFKomAOCBZf3c2UuV1driNSKSeaPOEx59+hh9AovivPfTvzj6t78zGO996MbLt8TdSZvlfXuxoAIngXytHvoD0nr6grnx6LCMTfDPRKZyJjE3mNRFjZSLowpqxMpGZRBwey1JNMofHcqA+SzXJHKjPrzNGNfCaiNEwgpOIf0a98hCURLNLl8Wtrz8XOdDhr3/zP2o7hNG5SCURHp2W57i9axIey2gpAImCHrf3lTeip8d+451fin2lQWMRGCXYo5cgu85BgPW2KOgmcSsASBTsuD3fOdbweftwv7EICRo+ERLNqjccWpFEQY/byx2UlojQ052EsTJaZWJxjE7NOnL2UZ9hpx1nIrjCPzlu9D1YT731pvqGEZCkDhrPkxY3ThA5dtjTnvVHiSZ3K5Io2MIaSHTfjk2RI4jveTfvEcQkuEoNEHQcXHHQMB/zQOVIhAMFsUD6FQeDaAYzZ71e3zA60kQego1uR9tbP0zBSB3oJwEt7wvNTYuNbhUEJxEchj5wZc7Khv21gtJgYMyTBoNIn0Yl0HGEMGCfQqLkgBi7euoFHdqjb7HRowMvR1fnR/ygbUqJlXeEgHajtroO4kMsNrpVEJxE6/duFSfmJqzAz6qz/nWmBwQHk6LGYGchkS1HUaNeAusbzkTGvpfMJHZWIX7UGnCaHyGkAvUF0iuERGt3vSr2Dg1Y6ZKvt1qvM/v0mZ6J6NSg+QYbOl3mQzoTifLXCwSx9m6krU6roA5jY8pTP1S9WIcUp9eIECI2W4Le+Szt5D2hzpZpAQQnUe6FNaPtEZREk5cXxOrtL4vNI31W/vadX4ozU+PGgtGJCEoiwIHiYGTvbLcURmcjOIkYKw9MIkbDSCURJED4uD1GGjIftzc0UpYyxsKSkJFShV9njMbAayJGw2ASMRpGcBI933dEFA7vsvLTk4dMDqNTEZREpYW5xDfW6/ZuEZ9MFI0FoxMRlES+vbOmxli3bXgs2fjN2FYzN10brTsoieDnQZ95YWPk+OHPvvik2DZ42liEBN2BD4lm1etD9rZWDInq2sWn4Q/mTuCmaDiE7mxjIwXDPtTneChIyPDYGvVFAs7ibdij9zxtIHl892Dq0NW5MBJ79B/RqXKgIliOcNvgJFq/Z6s4Nj1u5YE9cCRxejxR9AZcXI/tbHXF+CDMxzxQmQGADjJlQ4THptcnLXVlEliWtGHLprURbStOIto30H5cR8sgIB91NMjN1umctvmROutAKomAOCB5fne2btdmcWDkvJW1O+UTnLomgkExTwZ0cCwwa1nDY9Pq00pXH/ruRjhZX0LnbwsH1UeCyOwHEht9RwioO2qr6yf9HSjcFkgU7Li9RoPSdKdhR1OkDQSoMpDIlqPIWK9KxuqjhIG0KkvasLq0Nqq1lZx1vDORB9EyjoQa1BdIhyNRsOP2gEQQHrt/+KyVrp3tGx5L1ynJ+uBq6pKf4Z9EiLQhB6g2iUhbkGd8861/vGsi0Bv/EBFCxGZf0Ls+kHbynlBny9QB30xU93F7ak0EgfqzFSt5AvXbH46IagAx3eEIvrBe6THWdLZr5OluJwQlEeAvtv1cfPXN563cvOVZMcNHEHc0gpOIsfLAJGI0DIhszEQiYBuDEcfVq1dFsTwpFhYvG41GgkR954bE6FhFlMYm1PcBLCwgcGos8GJotGyY4pAgESimZ+fEsDSGgmOSedUEiIbiy49LXvuR4rhX75O8dee1B8nqT96689qDNKtvqtkWx6WuPCGWrlwxTHHwkggB01aawHnX8MUTXH35cZm/tJDLHnzx6X3SbF9AsvrTSr6A5PGnmi9LS0uGFUlYEsXP38sii7JyWGTBIdm+/LgsLi5pe3n15cellXwByepPK/kCksefRnyxZzbi+XtZZE42Njk1K68L3vy4gHPa/pI3Py6t5AtIVn9ayReQPP404ovdO8Pz97IIMHtufkFcVgz321ABdoNzWe1byReQrP60ki8gefxpxBfvmqgWoCDs3sI1C2DKA8ZmtW8lXwBZ/WklXwB5/GnEFyZRBjCJ/GASZbQHMIn8YBJltAcwifzQvgjx/9eHaoQr9FBbAAAAAElFTkSuQmCC;" vertex="1" parent="1">
          <mxGeometry x="60" y="350" width="145" height="221" as="geometry" />
        </mxCell>
        <mxCell id="fQiEGHonLtwZmzi1E5y7-3" value="" style="shape=image;verticalLabelPosition=bottom;labelBackgroundColor=default;verticalAlign=top;aspect=fixed;imageAspect=0;image=data:image/png,iVBORw0KGgoAAAANSUhEUgAAAIsAAANBCAYAAADQgk2wAAAAAXNSR0IArs4c6QAAAARnQU1BAACxjwv8YQUAAAAJcEhZcwAADsMAAA7DAcdvqGQAAAASdEVYdFNvZnR3YXJlAEdyZWVuc2hvdF5VCAUAAGMlSURBVHhe7b2Jj17HdSfq/2MwwcQxEvg5SDADZAxMZC0PyMRO8vAMjLMZk6CNeZPEcPKCYAZ4lpO84LVjW5ZFRSPbsSLZUCw/R7Qk21rskRdxESlRlkQ2SYkSd1Ki2N3sjXuTEimppk5VnVOn6ta9t271t3/nRxx+1bWeOud3697v1vK95+qbb6m3335H5eDtt99WV6/m5z9y/LQLtQPq7KcugFx9RkkXQBd9+qnLey6vX1VvXbtuKn9TK/TmW/WyfuWqunDxslq/+mYyPZZDx99Ixqdk/cqbneruqgtIrj6jpAtIF316ocsVR7ZY3nP+wmW1snZBnV5cUUtr59XS6rlGObOSjk/J4tJaMr5OutQN0jV/F31GSReQLvVvXJfzhg8rmg8woqG8B4iydv6SWj13Sa2cFRGxAnw4q3mxdvaCH1nml1YrGV97Y1m9fOg1teelY8Xy0qsn1cGjb6j5M2cr9YuMjyzoUQfxnmU9ZPHE46+f0Y4+YW5NcK+EZ5oSuXLlLbVwZk3tO3BcnRbCjK9oHly7ft2SZTEiy+79R3Ti2yaxF4DGXj1yKmhDZHxkeeW8uu74EJDl1PyaOnTsDZPQK7zzzjtmdOEKiIyP1JNlYc08azTh6NGj6rHHHlP33HOPuv/++9WPfvQjtbq66lKrgAej5/ceChQQGR8pIsvJkyfVn/3Zn6n3vve9FXn/+9+vPve5z+nnlCsut4eQZbylM1lef/119Wu/9mtEjO985zvq/PnzJv6zn/0skWZmZsaV8BCyjLd0Isvly5fVzTffTITYsmWLWl9fVw8//LDauXOnyXPrrbdS+t/8zd+YOISQZbylE1n4yHHjjTeauI9//OMU981vflMdOXKE/gZ59tlnTT6AkGW8JSKLfweSIsstt9xCJPjoRz9q4uBWhHGf+tSn1IULF+hvkL/7u78z+QBClvEWIAvMGcIEZStZ4JsPkgBIAsT4+7//e4rbtm2b+slPfhLkWVpacqWFLOMuS5osly9fMTPZWQ+4f/7nf05k+OQnP2ni4OH20qVLan5+Xt1www2U/r3vfc+kI4Qs4y12ZLlm/JhFFsDf/u3fEiF+4zd+Qz300EPqjjvuUL/6q79q4j7wgQ+oH/7why63h5BlvKXTAy7HgQMH1J/8yZ+oX/7lXybi/Pqv/7p5x7K25iecOIQs4y3FZOE4dOiQOnPmjPurHkKW8ZZasryhyXLg4GsmoVcAsryw90iggMj4SC1ZltcuqufnDpuEXuHCpXW1/5UTgQIi4yO1ZAF56eBJdWp+2SRuFNDIwSOvq2OvLQZtiIyPNJIFRhdYJfezPYfUy5o4sBCqRA4ff0Pffg6royeFKOMsjWShTJo08MD7xmK5pOoVGS+pkAWIISKSFE6WNxZX1NU3r4mIJGV+cVUdPX7abETTI8tZwxqBIIUlfedhtyEhi6AeGybL9cuXXUgw6dgQWU59//tq58c/rq7Mz7sYwSSjmCxAlN1/9Vfq7M6datcnPiGEmQIUkQWIMvff/7tSZ3V+LRd271a7/st/6Rlhlh+ZUe+dnXN/IebU7Htn1CPLdemCfqMzWYAo+269lYhy/Y03zOeluTn13H/9rz0hTBtZBMNBJ7IAUfbDin1HlJP//M9qx+/9nrq0f7/5+/JLL6mf/emfJgljCDAzo2bc2hfLBU6AaORoyMvJZMJBPkG/kE2WhZ/+VO37zGeIKEe/+lW15SMfMfL0f/pP6vLLL5v4df357B//sbp+8aIraWEJ8IgCXvhwE1nq85o4YMbyI5pQrvzcLJUR9AfZZLl2/rx64VOfolHk4p49avtHP2rIsu/Tn1bvrqyY+CN3362O3HOPK+VBDgaAY987q93fQJaGvJROaYJBICTLcno5JOItTYYX/+IviDDnnn3WEOUdWMHfQBSAcbBzrAnTaOFuH2yUqM8bkSUeWYQ4fQWQxS/YbiELAAmzfuCAIQjKifvuqyUKwDodn0OcgzXmZu3zhk1jZJBnlpHDmWX9XLp+RZljwhb1HzkwhPnLv1RXDh40RHkNdiI2EAXAHSwYT4QjS+Z7FsBba2tqz3/7b+rol7+sjupRpQ1ClvFH9gNuCkCY1x56yP0lmHRsiCyC6YKQRZANIYsgGwFZ5pfWzNI5EZGUwDm4wcjy7rvviogkRW5DgmwIWQTZCMmS8bpfML0AsvhjwlrIcvri2+q50281yvPzb7ncgkmDmRuiY8Ja5oY+/OCyuv3ZsySzT6+pv3hyJYj76y2r6nPPXHAlBJMEO7JkzA1dva7UJx5fURcvXiR5ef6C+vRTq0Hc8aUL6q9+es6VaoafL/Izyr2GzEn1DtkPuECWP3p0We04fo7koZfPqv/riZUg7slD50aKLILeoRNZfv97y+oLO1ZIPrd9Wf3tTxeCuC/uXEuTxSxOwrUrbMlkTBazoMnlo8VMkO7icJRI5UvEBSML18HFmfTK2hnIivW8V80Iiw06kSW+Da2snVWvHHs9iGu/DaUWMUVx0VpacJx12LJ6ZMY6NJWvNs4W0ITA0cuSL67HEIT0kcVUMTqR5S9/eEYdee00yavHT6kXDxwN4vYfX6ghCxsdGshSzWcJgle5v9Kr9TW2ES27RAJ6Hbg+Lox1CWsMOpHlT59YUvNnlklOnl5Uew8eD+IOvrGSIIsfEaxDm8iC8GX8yJICrxsRjUA2UD+yuMI8TACSRaPVtGJgtyF/perng9iRnCz8uaLhWSSZLxFXIQOmJwjiw+FoJs8sFtlkAdzwzSX1MW04lD/47hn1p48vBHEffWhZ3rNMKDqRRTDdELIIshGQBc6UEwjqAAug5Ew5QRaCkWVheU29de26iEhSlpbPerLMa7Isr54TEUlKZQ2uQFAH+TYkyIaQRZCNIrKcXr+kPvbUZvWRJx8gmd27zaUKJhVFZNl88oD6xsmX1OvqLZKPbdms3nXpgslEGVlOHFBfj8jye1u/41JrgJOBbtIuxJyaNTO7+JnA3GzNhB5M+uGE43Le7HCqLtAvqVu/0dDnEUNIlsytIHcdeE79/LfvCOSXNv+DS61BrbMBGWRpBSNNCYZGlvEBkKXTMWGA1Mjyv//gGy41BU0CN90/O8cIQQ6KyALxPA+EkWzwt6vLLyfQJMHlCaYcW2KA9UD5GViiYPMicWn5JCytjMgSLGlw9UAcZpub9etyZmdd+zoR66y0wdfTuKWc3B4+3wZI30cUHRMGZLn7lZ+pvWcXSW56/OsutQbkoAyywCdbj2LKufLcWRY4oviRhcrwMJDJe9nGUfs2Lr5F8noCYlARH+eJa9fqmLqhL7yNRP8oDvObKE/mUUI4snR4Zvkf+la0Z3WB5OaekgWyg9HB+H5RFJU3V58Wk7dKFnSiAbbBHYBhHhc41aKOGPVxXgedavui27CjBR81mA1YPtJlRNGzB9zm25AGGYMZCgxprIxxcdqsvwITxrTOqpIFnId5KczLY5gThHTxaCdGBlkSJKQ0HoZ8GJcsM3wUk+W2PdvV068fIbnxsXtdag2Ys6rPCQmyQBjyoNFceXAMXaUmzTvI1GvKQ5zLg/WlyGKCmA918UiRxTjStK/z55AFQvQsAu0k+unCvm+urRFDMVnuObpXHbt2meSWJ1pGFsHYY3C3IcHYo4gsB84tq99ir/pBPvnM4y5VMKkoIotgOiFkEWRDyCLIRkCWhTOramXtvIhIUhaX1tgxYUur6s23romIJAXmDrOPCRNMN+A2VPQTMoLpQ/ED7gur82rb4mski1cuuRTBpKKILD9ZOGFWxv313m0kv/2jB1xqLvj8SL8wbm3wuaXeY3l5Y1oWkSX1ur91WWUFk0KWXqKPZOETqYUoIst9h/eoT+x8VN32yi6SGx5r+ek7mq1lx3xpw8y62WE/a+tmZ3k+97fPl4oDe2Acztp6smDazKw2mikAaTNutRqoF8/4+rJGdyoT64z59Kcpz9NS7XKwMibNkmUWyzjnBrPWmG/W6g55qulxf7xdIdmnoZ5hfXUoIsudB55TH/z+PerDTz5A8r4HN7nUNKBDpJi5esBQzjHkjGU9VEIeCDIH4ZqWpjhKA+h0dCB8sjRjqFQdnBi8LMZRmZhM7LNBJ9+uB8R5Qnin2mxYL7MJi6NFYcn0hC40smAek+h8weurR89uQ82zzqgUB1M6NqpjPTm1ki8Rp41B5YxAey4fH4JTdQRDNOra0m4lXyJ/sl0PWiND4HYK9aN+mbjInnF6oi3SBdIwrxEkKauvBsVkue3FrWrbiUMkNz7avPjJjywQBgVbjAsGMAUS+VJxKQNhPp5WV28lzNJ5GbxiKT3+1EjpRHV48JEFwnYZaVQ/r4N0Y/mS6Qk9ybZMT0KfyXLv8X3q+PV1kvbFT9ABx2bTOaY0dZjngWcD1/FUvkqcjuX37qgspdGKOFaHhh/R/NWeLmPv7RBvm8V6WnSiOjjASZgOZRNkCfKATSCd50ulQ3E/2phmQScXDkZvQypeXz2KyfKPh3erg1fOkdw8yivlmPOMEStOy0VIsFb0rN3RQECW3GPCgCx37N2hnjl9nOSmtm9DQ4Yfddof5OrRkSwavWl3NFB0TFj3B1zBJKDoNvT4qSPqM3u3qu8tHiO56YmWfUOCsUcRWdavX1N3H3hOfX7v0yRb5o+7VMGkoogsgunEWJHFvotwf+QC3y+4r47mYZMq0Q+sGNfhK+S0YsJHFu38Wfvthb8t5bsLZ+OvKKk4gcGAyAJXLDoLw/CJVzVOYMFXU/vS69ZN+hOd5t5R4MgSvFTiL8JMHEzEubZwVIlAZIF6sR4abWR0qcPARhZ432D8AU51byZpAgziTCLcFtBR/p0GluVkQRKg4/3IAXXYcPK2xV6OhfXgG1lel4BjcLchNjqggyAcXtmeIADrNE8gdD4ngc0TjgZVAlmY9rBgBF4nDws8BvjMYp0OazWMI/gtgq72kCwmj74t8ZEAglWy+E+dSre8wOm8PYe60SQmmcAiJEvmMWGlsK++2W2GRpXEpKEB5PGOayKLjnTPLHrkwucjIkj4fARiy3sdPJHkmaUOQJbOZ8oNDPR8047UyGLC7ttQNnSb8m0ojaIz5QYCN1LQbaQNNLJo4YUSt596yKjShHBkmbj3LIJeYoAPuIJxR0CW+SX4vaHzIiJJCX9vSD/gpn7BSkQEZEnfeeQ2JMiCPLMIslFMFtkYP30oIktvNsYLxg0hWTbwqyDdN8YLxg1AFn9MWCZZijbGK1ySEM//lKClDt2QvLDvPczr/q7HhJVsjA9mgPuKXpBRkIIdWQp+QqbbviGc3YUJPnQmfMJss4ufw7kdNzdTN9djwOrAPFogG5DSl2HpRCCM0+SdRQIn8uHyCJolFxQ94AJZvvDiVrX1xEGSto3xfmThjvZLCdBJuMaErympjkq8DkYuJIirKyjnJhR9HEwaeoLF+YxOFCkAFJPlvhP71Im310naNsYnyeKcSg7SsPmsI3HEAAlnjhN1JMhi188w0ekpEqbycZ0EFsVkgY3xr66fI7m5ZUdiN7JAlHdqFXlk8W168DgcxVL5hCxVFJPljn071TPzJ0haN8bDsF55Zqkni3E+u9pDZzaRxY1KJqzTWR22DR8HzyS23kQ+IUsFxWQZ143xqZFFkIcissDG+E/PbRnTjfFsFMFRSZCFIrLAxvjtbF4I5OWzZ1yqYFJRRBbBdELIIshGQJbcY8IE04ngmDBYgzuvCSMikpJwDa7chgQNkGcWQTaELIJsFJHl0vW31J0HdqnZvdtJnjx9zKUKJhVFZHn45Ctm3S1/g/s7P/6WSx0QNrwajs0r9QEb/SGoIhTNZ8Fcml3mAVMhwfxYhCKypOaGBrsGtxeO7iNZxmkSUuvq58qaF3oVkWV2brv6uW99Uf38t+8g+dffus2l1oDNIqMhPZNxOQJzIF9y4MqBQBSV038sP6IdA7PMM5vUrbSqDa6WaIlDpX1oC1fq4YRiuI7G55sxZSFPsPbFFor64esIdHV/mzZmbX2cUHxSE8PVtljZTbdS+6ZvYDciadVmAKzP/1AW6MpthmXSy0N6NrK0zTp7YzgFsYMmCsN1ZHEd4nEuHziDk8/agNXtUGnf1OuMQvW2nXPH0kmHhH7caaQHtgufVWf4fmB9qbZ4WayPlQ3IEulE/bH5aQkH6ReViewHKCbLVw/tVgcurpHc/HjTrLPvGCEYqjGdKc+d1RBHBAG4dG94RKL9ZL22PrwiqwbV0HpTOsSzsgTsG6RhXiM48sS6aEBeqA/qx/ritqJ+2L5DnCMQ2TTRN0pjcSndDaI+O4Rk6bBvaNP+Z9TPFl8naVv85K9sCOvOHXTGgQg0FFeSjJZyqo8LyKJjwHB0TBhDpf0N/TiWC5t4nU4jj8ubchqhhiwmXvcFbjNQNtlWVNbEQ39dG6l2sR5eX13f4jIRgCydjwkrW/wERnVXiVPEX8XeuXhfTf6IFHUCjGbrCcni6uQRhLj9VL08T+qcO9eu0Q/SnePA+K6cqQbqc2HfRxDIHzmcweZFW6TaisvaPNTdJrJAbMW2YX1e17R+RceEAVnu2LdD7Vo4STIqvzfER5DJB5A77dgK+GhBI4sN59orHFk6PLOYBduXz5K0LdgeBMyVQ6PApMOOgnTbzACNLMG3nfqRLsbAvg0Jxh9FZHnp3JK6UY8kv/nkN0l+f8tmlyqYVBSRRTCdGCBZ+DcNuEPm3ysFo4GBkQW+ltmHMSCJe8DST+hymvX4YGBkSW90l9FlnDBksoTxgtHG0MnCw4LRRkiWzNf9JUg+s2jIyDI+ALJ0PlOuDP7bkH/rKM8s44SiM+V6Bvk2NFawI8tQfkJGRpVxw8AecAXjDyGLIBsVsrz77rsiIkkJyGI3xq+KiCRFNsYLsiHPLIJsCFkE2SgiS2pj/KaXnnWpgklFQJbcY8JSG+Plx6kmH/CQS8eE5Y4sqQXb3TfG870tsH2qK/r7BnhSTkHwcW7CtqgNi6LbUNHG+Fow0nRCH8myAYMOHGzfT/UUBJi8dXE6H+4VajstoQ5FZCnaCuJ26XnWW5IcRObPbmYbpoAI8dIFP2vN1/DOur0w6Fy/N4blm52hUwuq6aAav/qgXpsOyfxqtdnD+hB8cxuGG3UZxCkIfGOZs7fRuPBiKCbLVw6+qF6+uErSvDHedtTqjR1E5X0nwDHWBs54kN0B0jwhvFNtnViH/keFfJwnXipdfyJJ0bjcaaQH6s3r8/D6YX3tuqCjqWxAlkgn5nhDYBPm+kVlIJ6VCfIG8fkoJsud+59Rz585RdK8fdUbxgOVr3aCEwNRXSTF62R1wHCLV6WJi9qO01OGQ6dBGuY1giSN+6IBeaE+qB/ra9EF+tnXUxCCdFZnEM7HwG5D4TANxkGFueLWcKlTEDiBvJEjsnDjQNjUy/Il03VZuv25elJOI/B2Oazuo3UKAusbldHgdXVAMVnu2LtDPTt/gqR9Yzwo7q6yoKNgQIyDfuAQG8PlS16lUV0mT+rkgVQ6FPcjgGkajOnCRh+XNo6nIKTifDvdUEwW+0tmZ0nanllywUegyQe78tvARwM+SuhwV3uN/rehDJgrB6+oiYcdabtc4TSy0OgFiEerFhSOKoAissDG+Juf+IZsjJ8yhGTp6+p+wbgDyNL5mDDBdKLomDDBdCIYWRb0yHL+wmURkaQsLp31zyxAlsvrV0VEkgK3oc7fhgTTiaKvzoLphJBFkI0isuw/e0bd8oPwpdwfbn3IpdZhmU3ZJ6AT65JhfsO+0m6po19A3Tbw9nP4YPNNKTTYH1FEltTr/rZlld7hKTR3BMs219EvdHydPpZoIZJDMVniBdsf1qNLPew8CM5p+JnQ6G9gAkySmTQQ6yRLEl6HdiCuONMV+DkTLYZN4GAfh6NBZW7FzS4HcaSrFq4PGJNGFlY/GjmhN8TBEgT7N6vXleGTphj2tsG0VF84gb2jq2U5MB/Tw+UL7N+AIrLceeA59cHv36MJ8gDJ+x7c5FLTsA43gXDdBXYAO8zuM7jgCctSHTonX3Hmi2A9PJ0ZCdtFsKGXt+HJBXUwxziy8DwUBrI4Y5OeqThApR5woCMU6YjtpvrCdKK4VFkOlg/JTDPZvGw9QrJkvu4vmXXmBkRD+05xZaEzyPwmsjBjgFOwjKknZUxbHvP5erAtG9e4Is/pHuRBg7N+pfoajH4gkAEvFtAf/+Z5cBSt9CURlyxrMjhgWW8P0p3HNQDI0vmYMCDL7XNPq52njpHc+Ni9LjUNMiAayEZGIws3AoQzyEIdduFKPQlDuDLc6fw2EDqd1eWcH+cx4RayUFwA20daXZfSNdmXqP8mrs3hmM7yke3ayloUHRMGZPna0Tl1+OoFEliy0Ai4ethIEbIfOq//1orzNDAiOhCNX73aXFkoo+OqK9KYkeKrztRn42ZhxbyJ5PVZA5pRAcLk/GqeJDFYnNHDtQXC83o74N+Yr64vLJ8mG1581bIczA6oM5HF9ceE62FHloKfkLn3+D517No6yS1tZBGMPYq/Dd22e6vadvIwyY2PNt+GBOOPYrL0Y1mlYLRRRJbUxvgbHh+Nn70T9A9FZFm8ckl9lh23AXL/kb0uVTCpKCKLYDohZBFkQ8giyMbgyAIvgPCFEb78obhZ8wLOvu+q5lt+ZFbNwEsjfJkkGAoGRhb+ah3fcPo4eLtpw6l88OnfhAqGhYAsuWfKdQd7Pe5k5pGD7DU2kiSVz87FtLyJFgwARWfKlYCPGAgfBySpjiwIIctoYDjPLFqM8ykOJsMcSRL5hCyjgaF+G0qNLILRxVDJEowiMnSMPIZLFsFYQcgiyEZAFtjrfO7CJRGRpEQb4+H8jfSmaBERWHYrtyFBFsJnlszV/YLpBJBFjgkTZKHomLAXVuYLNsYLxh3hyJL5zJJasN3994YE44ai9yxAlm4b4wHLbE/yAKEbtVNOIza/hBvQ4s8aDOXHsiIUkWVDG+MHCrb7btSQSRKDnDwDQPHI0m3fECxusrPL9tdAZsyckN1H7GeYrUEwrxVLMJ7PrYHRBsQ8FMfmmqAuIKhJ15V4srK6kEgtdVXmrSppUCes9rNx4fEgUX6Mi8nCPm0+ENDF6xurMWgUk+X2ue1qx6mjJNkb4w0ZcNETuzWBQU0Glo5xlOaROprDn3dincdPZ8D24dOSkoXBQa5+ni9qklBNsw41cYYYVn+q390KAVS2iSyu8kreIaOYLLAx/sibF0na9jp7A3sHAiCeriRrmcTGbbAXXm24lAFIxeOQIBxVsgSLq7B+5oxAT6yf6WsRp7G2ObGpXj86gJhkRo7kJ5SaFLL807F96ui1yyRFZOFG0OEmshBMGb4kExwRjywQhrgqWeCTO6PWQQyp1XsIm9ZMFl6edMQ26z41SBcWN0wUk+W23dvU9tcOk7RujNcd9s8seKWyK3QWjsuA+ARZ4BPzsSHe/q0Nqp1h/cPrM7nsFa3DngTsKsd2Eg7y9WNdHtW0ZrLYvtv8dLQHS0t+apDOrv+RGgPHgB5wBZOAkCyZr/sfO3VYfWbv1uA9y41P9OaXzASjCyBL52PCLl+/pu48sCvYGP/j+eMuVTCpKDomTDCdsCNLx7khwXSi6AFXMJ0IyDK/tKZOL66IiCRlQfNDRhZBFuQ2JMiGkEWQjSKypN6z/Oj0MZcqmFQUkeX7pw6p/2duS/AG9//4yf/vUgWTiiKypOaG2tfg4toVPpE4KPDJSb+2pL/ANnGSkU02pjAwvcpRRBZYVvmLD96pfuXhL5P8wre/5FLT8LO+w8QgiRqTpQk5eYaPgCy5x4TByBIv2P4Pj/6TS01BG85M0fMlCvAJyxJc/BwuQ2BT/W5a3y8RwHp8XLBcAInAlgTY6X7b5kHMC2WT9XtUFlvB0gFYXgBxuq45XpdxNuYP26yOLIm8qC/qP6IoOiYMyHIP/ITMmxdJui9+Asd7R6ChcHEQXzCEZcPFTTYMabj+A8tUFyuxNqmdav0ePh8h0pEIYcitKYGZaT0L1pEiC7Yd5xltFD+zfHEja3CNgZhD4Kp1nrP5wqvPXoHhgYVYhjuaCFAZNeI2U/Wjty2gXkyzVXgdPdG8k3n+sE3ME38C4jyjjZ494Gb/7B0ZCD8hKiYLd4hH3cji4+Iy6IRqm6n6k8CRooksLA3yCVkYgCx3vfyc2r08T3JT26+CgBErzyzWcdwR5Hw+OuDVDWWCq5fl10AnApGwnK2XO8WVTdaPYO3wZxanY4UsgV7x8tCYJJwYmAfq1GXRHiOKYrLc/erzav+5JZKbH5eVcpOOgd2GBOOPIrJsWzipYPsqP0XhQ/LjVBOPIrIIphNCFkE2hCyCbARkgWVz61feFBFJCuz+oNX980ur6uz5SyIiSVk8s9b9TDnBdAJuQ7JvSJAFecAVZKOILCcvnzdHmX7kyQdI/vO2h12qYFJRRJZ/OfFy5XX/7279jnrXpQsmE0VkSc0NDf8cXD+DO0rAWfH4sw6jcIRpHYrIMju3Tf3ct76ofv7bd5D8q2/d5lIFHLkkMeDrYkYQPRtZshY/zUZrTc0aF7cOpLL2tumHwWFNCF9TAuFobYjJb/NA27SuhS/lhLqYDhVHVdKgjYZ1w4n+xGQh0lTyQj/s3yZ9BFFMljtfela9sPQGyU2PNc86g5HiBUvp40mdM5ljfZwvS6vmgEiGJI4s8DdZ28UhMXQaEHZWVwb1AAF43TGqaRHZGDnr+kN9jT5NeRMI48ZnZMk8+QnI8pWDL6iXL66StC1+IoMAyChgfLy6wLhwdeEqMjS4v+JQTFlnbKjXX/WOGCyvvWqhnVn1yCNaYATS5QKyYV5S0KGS5tqANOZY37e4Pz4t/kyWZ3GjCCBL52PCSm9DoXE4MSBsjeuv5lQchyUAnGpNjqqMLAhb1wwua9T14cHGHlyfGJjWRBZe3rYHyUiE+HMcyVJ0TBiQ5fMvbFE/PXqA5EMtR5uCQeCHvs1V5wwOcXgV0vGkdDXb/MZ2/ArXYvJp2GcTdJB3pH9m0cLbSoR53thR1bQmsrh6TX7fH57GP1PldcD004RHEHZkKfwJmdfefZMEfn+oCWSQFqRGFsFooOgB9+GTr6j7TuwPbkM3Z28ya0HlOUEwKigiy/yVS+p3n9qsfvvJB0i+sH+HSxVMKorIIphOCFkE2RCyCLIRkGVhadUcXykiUifByPLOO++KiCRFbkOCbAhZBNkIyJJ7TBjghdV5tW3xNZLFK5dcimBSUXRM2A/fOKr+YNvD5lw5FNgcL5hsFN2GUrPOw19WKeg3ishy3+E9ZiT5xM5HSf7dd7/qUvsNNvPbd2BbrM1lOMupDZifL1sYFLDN+LMOWstMYxaTBQhy2yu7SP7td7/iUicJMTFznT9IQsfIJYlF9gSvRvFtCGadT757laRtiQKs3wjXhkCUm112q8psRzHOdbRSzjsCOhqW12kuLwgaAdsx59iaSOZMWizF247bcp+oy8z96n62fALqhypIH51ml3qGjoOFWpA+O4d6VpdgVGwC615qz9/l+TEubJOTxttLC/bL/F3VI4VisnzhhafUluOvkrT9rnNltRs5CeCcEcRZVFfJsbymwxoUhs47kmFdrE5jLBN2ddhIl86GY4rDfPjpDW+caL3p2ozqDPLDpyMvpDkdQR+8cCxYHQggqIsDYoRt8ltIrGP8GbaHdoU4Z55W9OwBt/VMOWMkdgWwEcOK7VDlyorLoVHIWQA0SOQw1w7lw7hUPhNkV16QL3YEwOth8rJ6fLmqw4J8QR8suA5WBZ8nXBjm6oP2Uedkmz4vJ8ZAyQILtl86v0KSf1qlUz4wbgIVQ2KnnSOgvDEOJGEYneTioP7IOZWRBeN4e5V8sfMtwOAzOGLEbQf5WblIn5gsBMzH8lTIwuuqbdO3PTSydN0Kwu+tvvM+zlwV0GH8uzLSZD6zcIc5K1A+eJZwcVQvxemyrp3qWba+XlMO2wBSYVgjaMfEVx3G9YLyIVmYDvyZhewVkcV8uvz6b9jTVCWJbztFFtOHfj+zdL4NjQK4o3oAMH7o7MlGSJbMrSBPLZysvMFtW4M7EughWewoYq/YaQGQxa/uzyQLQOaGpg9m35AcEybIQTiyZD6zCKYTwTPLgiYL/CEikhK4DcGnIcu8fmYB9oiIpGRxiZFFbkOCJgBhhCyCLAhZBNkoIsvp9UvqY09tDo42/bzsdZ54FJFl88kD6t4T+4LX/R/bslmONp1wlJElMTfUZQ2unxBLYZmt0chDr+sTpBGSJfN1/10HnguONQX5pc3/4FLb0eRcPjOai17XJ0gDyDKQM+XMJJ6beqfjv8z0OE7Jw6QcTtHbdL88IUGGXtcnaEXxmXJ3v/Izte/cEknb4id/9cP6ChtuOgrUkIGGBL+eBNHr+gTtsCNLwZly5kfAVxdImn8E3C/AAXhHVxf7kHODUQKELwfodX2CHPTsAbftNlQdCbjDMY45t2XtSa/rE7SjmCy379mudpw6SnLjY82r+42z3BWPzxjgSBwF6GhTtsyPL6nkyxcNel2foBXFZLnn6Jw68uZFklvGYaWcYEMY2G1IMP4oIsuBc8vqt9irfpBPPvO4SxVMKorIIphOCFkE2RCyCLIRkOXUwrJaPXtBRCQppxdW/DFhCytrZk+IiEhKzizLbUiQCXlmEWSjZ2RZubruQoJJRRFZXliZV//xf/6zOYSQRP8tmGwUkSX1ul+ONp18FJEldVrlDS2H+VRRvwCJlhXoVLueiS8/QCTKzzWcpKQxyj/dPw4oIsudB55TH/z+PerDTz5A8r4HN7nU3sGTJoWOq91aiCRoR89uQ82zzn4xkg+js+FvXGdiRw9LElz1Bnn9yEJrVnQddKYcAglh1rDwOn0bhny0FkYLspHi4AhSp2si3/Ijug2oqwtRJwTFZLlt91a1/bVDJG2Ln2DhETnKGNqRBf6Ohg8cUfjtyJKFjSZUDwMnCznX1cFGFr/KzqeHSzNtOJUPPqd1hArJ0mF1/73H96lj1y6TtC5+cg70xvaOj1fdc8cYRyNZAmIx4iAYWdChVAfF8ZHMyswjB2nkAliSpPLpcZB0mj4AWTofEwZk+dqRPerQ1Qsk7WfKwRVrT5m2xq53di1ZeJmWkaWeLBD0IwbCx0FbNpzKN81kKTomDMhy+9zTaufp4ySta3A17AiCV7BzPDidrl6bxh1c+sxSIYtrh4dxxAjj/JreVL5pJks4svTtAXf0kRpZBCGKHnAfO3VYfXpui/re4jGSG5/IPWF7RMFHkWkdOlpQRJbL16+puw88pz6/92mSn84fd6mCSUURWQTTCSGLIBtCFkE2ArLML62p04srIiJJWdD8kJFFkAW5DQmyEZIl83W/YDoBZOl8TNil62+pOw/sUrN7t5M8efqYSxVMKoqOCXv45CvmB6n4G9zf+fG3XKpgUmFHlh7MDbWvwe3vEaN9neDTig9+qshPnnYBzXElpy9g5t/F0aKw/DaKHnBhWeUvPnin+pWHv0zyC9/+kktNo9+ztf2rP7GUYlShCTLrZkD58gpOIEwnpOJqUESW7rPOyOgZdf/9bKUZLEHQHjaOnnVLIfl6FbwKEizwC6bYsoa4DrPEIc43q2hZZCKdtwt6Qr0m3ejArkzWBixpoPIAqIP3A8K8P26Rly97q9rEZrrtqkK86uETy/lfrvV64S/FQjlfBwfF8/6STfNHl2Ky/OPh3erVy+dIbm6ZdfZXvr9Scaml6bhTHvPxjvuyDtwZYHCdkdeBZeuOOiWDJ9JRJ53qjOj1DfRw7cJnlcxAKusAao/dyqgeXhbro7KcLGgL1MXrZOow4RqnszZ4330/Iext3YRistyxb6d6dv4kSdvvOnNDW+VCg2IadM4uc/RXEwh20oAM61Gt34T8SBAt2bSI01MG947xo5kTqCihC8CPDqgLhH1Zo0NQ1rVDzkVduE4uD1ws1AnUz+uJgL5WiWzB7RDapB4Dug1FCoGRYPh1EZCGRsN8jWyPh3ldgNdvy3IjQzgmSzq9esV5JwR9QNSQBeLNLcJdELw/1EZUFvL4X6BH/bieCWKQLXg+jYRedaMJDzehmCx37n9GPX/mFEnbyALK070aOkth6wR779ZXHTcCXsF4JTJAGZtm66mSJcyDR53yfKl0q5tr10SAEzDM0rQYZ9SRBfNiY6b/thw8WyXLQh7sPzk/RRamu7YbXjje6U5n155pM+qbbzciWQOKyfKVgy+oAxfXSNqOYw/ARwbzp3fgNAPskCZeDE+awJY6nPvNhtChzMBuQwQ3YnByCFmsDYJvVC2gkSWyZe4txSJ/VAEUkeUl+GGHJ74RnKLw+1s2u1TBpCIgyxuLKyYgEKQwv7jqz5TLHVkE04mi25BgOhGQZWF5TV28tC4ikhRYohCQ5YKOFBFJSUAWuQ0JmiDPLIJsCFkE2Sgiy/6zZ9SHHv968FLuj7Y/4lIFk4oisqRe98vRppOPkCwdTn6KF2x/WI8u/US3OQ8NttioEW6uqm7dRyOg7FAmtXTfOs4XJlE7Y54GkKXzMWGpNbj/pmUN7kbRjSxsVrYNHQ0WYEhk6dnEa8e+Fx8TVrT4KVojGx4T6tda0FWOV/177XoX6Bc3FBGI8lXXzQZtsHzx+hS/5tXU7BcZYX6TxyTqdl0crCUxkVDW57MOgDpgfSzEaT3nsG3WhsuP/U31jfoCEugUXTzgeLMmCOpndTtbcxtR2Q2NLB2eWe7Yt0PtWjhJkrOsMjYKfKKy4SouG/ajCTjDGy82qC+LDgdHWSOFbXgDUz1ksDqyuDgcRfAToMvaPrHbAqVDWe8UdJrvW7W/qb6l9Of5CKRLlI79Y7flat/zUPyAaxdsnyXJX7Ct4ZT0cdxRGiY9ddxoWI+Ni8oahGTxbeCVZcUYigxWQxZXj67IkoAbmBEH2qG6TRwry8pYfVL95faAqLr+hnEE1gaQj/cTCd28BrgdxWS598Q+deKdqyS3/KD9NhQaLDZE9UpD49iOxobycWFZiEuRhdfHQAZjDgQS1JGFEQTKGkdwo2NcI1kgqtrfVN9S+vM4QqINDt53apvrnYFisnzhxS3qqeOvktz4aPPRptCBeJ1t2Clt3OBK0ADHmDhb1vQrFVcpC8a24aANKmvFxEdGtvpB3TVk0QBjUz5bCWsf9/E0k6Wqs0aib1x/criuL/nMQhGsbi0m3pSxf9euAW5BMVk2tLpfMJYoIktqY/wNj+fvGxKMJ4rIsnjlkvosO24D5P4je12qYFJRRBbBdELIIshGSJbM1/2C6QSQhY4Jmz+zan5CXkQkJQuLq92PCRNMJ+zI0nFuSDCdkAdcQTaKyfLC6rzatvial/kTLkUwqSgiyw/fOKr+eMf3zFtclI/86AGXKphUFJElNTcka3AnH0VkgWWV/z76xfj3f+cul9ofJJcXNCF3DW5n4EInPiOd0VbLDC8/DHFUUUSW+w7vUZ/Y+ai67ZVdJP/2u19xqf1BN7IwR/YY1QlRtg6mFB2XCgwLxbch+yPg6yRtPwJujDyENbg+DX5TuqEOtt4D18lSPSCBjlDGERLLzdyv7qf1NVCdX9xkgISotOPW3ui/TX7Wl6odfB9S+UJ79h7FZLlt91a17eRhkpzFT75T1lnwiVdUauWYH02aV475sniV+5HF1wGOrq+j7cxcHmfLYhtsZKERAtqKRhtOFtc41UXlIIj6+vRUH1L5uL79QM8ecDsfbao75eOYwQEmvRdrcMO0+jpMyI9sTaSiuFQbLo4RgoCEYMSguigO6kIdrKTtkMrH7dkfBGTJPSYMyHL3Kz9Te88uktzUcloldCQ2Eu9c95HFx4VlIQ4dmVsHfKJDUvl8PT6unpD+LFuGLLLY8i5ISPUhlY/r2w8UHRMGZPkf+hvRntUFkrajTaEjw1iD69Oa6wBd7FWqddKOgKJcP3KOdizkCQmpy7mwSccwRxNZnD48bHWJ41J98PlCe/Yew7kNDQmpq7HXgH4iGXqF1MgyDBSR5amFk+r3tj4UvMGFo06bMA1kgT7iN6mego8iQzRiEVkAe/Wt55nF10iWrlxyKYJJRTFZBNMHIYsgGyFZltfUm29dExFJyhk9mBBZ4OfjV9cuiIgkZVHzQ25DgizIM4sgG5VnFoGgDkCWzmfKnbx8Xn3sqc3qI08+QDK7d5tLFUwqis6U+5cTL1de9//u1u+od126YDIRjiyZzyypuaF+r8Ht/Kp+GeaD21E8DcEmBFMYh2WSXVH0gHvXgefU//adu4KjTUdrDa6fER4KWog0rigiS/Gs81CONm1u9yDVV22f6tGCbRLYkgPMk1ommarD64dHiqXy6Xp0/6Bfo0K8YrLc9fIutXtlnuSmjJOfuBPQkGiI7ouffLovC/nAYX5kaWs3FWfr5aMT1svAyRLVT2lMD18Hi4OyJpzK5/s8KigmC6yU23fuDEnO4idnUzKmj4ucYdJ7fbSpRqVdn+6J6RAtLrILnlwaAAmBnxpUL8al6jio47xCVs9kW6l+DRcDvQ3FRuVO6z6y+LiwLMSFZGlql8eF+fjVnkAOWRhpPVgckMSEU/kmiCwlq/vhucNcOc4wZFwDbTC8srwn3RVnyxr7p+IqZcHQNtzWrg+7MlE+87eRyHFNZHE6QjhVB8VpvfDX3qv5JogssG/o+PV1kqx9Q0Po+bDarUdqZBkPhGTJfIMLR5vGt6FRXVY5emSxOuEoMmq6NQHIQseE5ZJl/sqlyuv+z+/f4VIFkwrzul+OCRPkwI4sckyYIANFD7iC6URAlnn9zAIRIiIpCZZVLuhnlmv6DxGRlMADrtyGBFmA0UXIIshCMVnio03hZ2UEk40isvxk4YRZGcc3xv+2HG068SgiS2rWWY42nXwUkQVOq/zNJ79pTqxE+Xff/apL7Q8q603akLkGd6BgM9QpjPq63YAsuceEpcjygYdkDe6G0EKkUUDxMWHjswaXtcHy+XUvSEIfhsVUJo9ZsQZpTDcttv1oqYFTqlqWga2BwbrGad1u8TML/K7zlmOvknxoRI82DdvwDsR6qCyuLWGO16muHiCLW4hE6QmyJMsycLK4fNQfGll4uWp/TFnUqZLP26kfKCbLfSf2q5PvXCXJ+cV4b0drGB+HnXUw6b1egwv57FWIwh0H+ehvlsde+cwxTWRJlmVw/aZPDdIP46CuoA7dxxFZt1tMlq8e3q1euXyWJOu0yshA3pFgq64ji48Ly0Jciiy8Pg6dVzt1lo8wWIDQQhYgCcQlyzLkkIXXS4jaN+FUvhEly6b9z6hdCydJbnqsfSvIsNbgUhtU1grGA9n4KGD/dhI7hhGC8mk9KnFUlqGJLE43CEMc1eH0ojhoi9kvzDeiZCl6wO1XLyYeqZFl8Cgiy2OnDqs/2PZw8Ab3Pzz6Ty41DSHLxsBHkWHZsYgs69evqe1sXgjk5bNnXKpgUlFEFsF0QsgiyEZIluU19e6774qIJAXIQqv758+sqgURkRoBfnQ+JkwwnQhGFnlmETRBHnAF2Sgiy6Xrb6k7D+xSs3u3k2x66VmXKphUFJEFTlH4/17aob63eIzk//zpt11qf5CeBGxA7Uq51ARcN/T1bfRQVvjlzSkVkSU1NzRaR5s2EWKUydLficCNoogss3Pb1c9964vq5799B8m//tZtLjUNY+AhrJSDGV4TdmmeLHZmGvNX6mTwM8l+BjjuC2/H52P9YzratSemUNhnrCO2B2vDztwzQvGJRQyn2qKyt6pNzpYA6Nvs3IBHlpxZZyQBOgc+careKm2CFPaOg87YcMqxvix22o8eVedDGixN9PGpOgncGWBwncj7gvnbfkSc316wPZ5uy3incZ2wXfikC4kApPJlTL5EW0FZrI/K9pksXzn4gnrpwgrJqJ5WqQv4q8xazV2xtj6bJa7Thg3IsB7p/Fivrzvos+kjpscXA8L3xY9mTmyBii4APzpgfdW2wrLOPjrO2iRlwyqKyXKn/vbz/JlTJFmLn5yyaMTQ6Dg6+LA3pjeEL+PjwrIQx8hCQIO4NDZipOok8JEFwjpjqDfk58ZO6cr74vWF9NAmvh5ellBDFog3C7ndCJNqKy4LeeAWadvg+tcjJEvmMWGltyF7z9RsrzgJwK5MjKRRwZY1fU3FVcpC520YjIVXmDWWJxK0b/In6/Qw+Vw6pHG90TE8T+pHxMFZqAc871hdnJ4Q73Qy+pow65MWk7+OLJjXK1VtKy4LefAiMHrkkaXzmXJAljv27lDPnj5BkjOykOEEQwf4I028ehSdKQdk+cfDu9XB9XMkNz/R4ZlFMFTYUbB9JIlhR5Ye/IRM221IMP4oesB96dySukmPJPxo0z/YstmlCiYVRWQRTCdGkyz45E7fUtiTfvAtAe67eU/ygo1jBMminT+LXyP911gKawLNxk/xqThBzzEwstgncDci4Pd7Gjlg+6gjQ827BCILe4fgRxsZXQaBgZIFSYCO9yMH3FpsOPkVGwjiIsN68A0kr0vQLwyULKFjw9GgSiALMyJV2GPB60ySTNBTDJEsnBhAHBsOnJ64JdWNJjHJBL1HQJbcY8JKkCKLjqzOyRBBgEDu2cSJLe+/DXkiyTPLIFB0TFivkBpZTNh9G8qGfBsaCAZ2G0qCRhYtdO/RqPlGlIaMKoPCcMkiGCsIWQTZqJDlnXfeFRFJSkCWhaVVtbC0JiJSK3IbEmRBnlkE2RCyCLJRRJbUxvg7ZGP8xCMkS+bq/gdPHlD3ntgXrMH92JbNylaTD79No0fzOvCSj7/ca8UybN4bGvo6+cl2JfYKQBa/YHsD+4Y6b4znju3s5Bp0rGfYM9X9a38usclu4zBbQboeE9Z9Y3w09xNv5CInQydhH7IdcawhIW7GTAvA32DgeDSiEQryUT1sgZXziB/JYHoAJyShHgxbsdlBTx9npx+4frrcnK7bpLvpBmjL5U8tqwjbt33pvME+kc7bBT3JRtZgFZ3CAwkcIB+3GU9zCEeWzGeWkq0gtLSgoggnDziNhU0+iGNGiTsEn+gYMKQJY1kNTOdl3dyTv7KjNqyi/hZFcUw/aMvVh33jyyQqo0ZN++hALNu2wT6VTrbVtdt5Mt//lE68Pg9vg3R64QMukMVsjD+/QtK2MV5rbQwTKsKMb+A7meo41OHLunQex52KZTAuKGuBxkvmN0G2FDSul9Vn6wF9XF4nQXuN7UMy2kG3QXV4smC+ajraiQP1TOsU1udhSQdluE88iskCG+NfWHqDpG37qu0krLWNrwIOm8fGYYfxU4NfnRhmzgWHpJxq4uKyOs4bLWoDIrlza+oNyQJRaSMbNLaPZblNvNN8vnS6H1mwHq9nSqc6sujMup9+g32MYrKU7EiETtF9FhRjjLdDOnRSjzwuznaIOUgDOmrLeCPYeqEOXdZZIRVXKWt0CI2rM7n8Os7k1QIGJP1cvgRZTFkso8U1S4jb505Dp/I8qQ32qfRQV4gAIrlwQideXwhXTzqxnCxf2rtDPXP6OMmNjzX/7F0emDMEI4dissDG+ENXzpO0bYzPg5BllDHQ25BgvFFElgPnls1IwjfG/+EW+cX4SUcRWQTTiZAsma/7B4OS5xf/1ZK+DeE3H0ilbxL+HUgljn3LEYQAsnQ+JmxkoR1tvzni198wPKe/AsdfCnPjBIXHhBUheK9ineHnKDapW+lFEL5swpHFffd3ghzAkWNGO9aSwY8qAYgs7t2DqQdHm1SchowuSdiRZQA/IdM654EvisC5SBIiiyMBOp6NFuY2YsKp2xYSD8JRPam6sTyrX+AxwAdccEx4FRNBAM5BnkDofEYCdCK/8jGu4mBoj40WAVidBB6XShcMiCz8FuGv9oAsLj4427aOLJwYcHszYe5g3p4DlEnVE8fFYQFhYCOLuV24USV5qLCGyUMRDWSB1MrcDyNI8HwEeWx5r4MnUiouGLkEhAHehtoBBODkqQW/8mlkseGs8i2Qb0NpjAxZzEiBI0gGUu9RgtGlFDKq1GKkRhbBaEPIIshGhSxvv/OOiEhSArLAxvjFpTURkVohsvTzTDnB+GOoZ8oJxgvygCvIRhFZTq9fUh97anOwUu7z+3e4VMGkoogsm2s2xr/r0nORfrG2AXSe02G7DrPQNX+P0c8XhrpjbTWXkSWxYHsaNsZ3zd9z9I0seW++i8gyeRvj4zST2f3dlr+qh1+QldLX9+fWTfrTF65s7qqUBbJA3SbO6Qn9M39H+XQbJk8qnfqiBdrEvrZMt/RsZBnrjfGptJrFWpQf28S2WJxxctwmhVl/mJ5kH0LUb0iE/rn8Xhd/+6A4sgNEVtPhE0lq+9bHkQXI8uWOvxiPHeCKWoMgOQDeeLpLrgMszjnSwqXzOHIYK8MM7ctacOPGaaaO6IoMnEFpIDV6BPUm+qNhnQVtRc6ivjCw+kgXU6/XpdqfajqS3wN1a0YxWf7h5V3qheXTJGO9Mb6StoXpBnpGZOFtInhcXZsmzHQDgGPhlhHXB/liWzASoC7c8TQ6sXypdCgb1lNClg2c/DTeG+Orafxv2oDO8lP9pg2rX1abUX/M35QWgdkI26+MLDwPPM9Y5ShfMl23TqMN1z3QqwogS9ExYbfvfVrtfOMYydRvjE+NLDngo8+Io+iYMCDL147sCTbG3/JEL/Y6jzFZNPxoUzNSxACiwBWfyathIxxZ+vhtSDD+KHrAhY3xMJLw1/2yMX7yUUQWwXRiQslS9uyDXzP9Nxj2PMG+VdDDaxzHH3InEDKyILSj7e8scqL5MOzLjh9ac+MmBYMji3vy51dm8vBe/rUTw/wKdu9p8jbVs/cJWvg7CqsHHiwITaS+wXiy8PcqXr1qnOkn/TFZGBhZuDPwhRJ80ssjBBibOcjkq5mn4c43/qGynCzYLsZ5AujKHFEhX/UNJravKw7rMeRMxbkw1j9hGBBZwiscBBxNTg6ATogcQGU9Waisu5o9gdBhnAQuLrjyMR9+Iqy+Vd0AvE4Ej0ulTwaGMrIg0mSx8WYqvuJwCCfI4uKrm+p52QQxaCQKHVzVVZepjBypuDg8WQjJ0s+Tn8AxbGQBR9eRBfNWnjH0qNJtU32KLKw+QzAbRwSJ9KzOZTEipeKCkWuyAGSZiGPC/PNFG9iVTyOLDffiV+cn+dvQ4I4J6yPMtxJ0egb8SBUSLHWr7IQJHlUAdmQZwDFhgvHHwB5wBeOPCllgiBERSckZThazMV4/t4iIJIVvjJfbkKAJ8swiyIaQRZCNIrLIxvjpRBFZerUxvgs6vzBjO/G6oWBuJ6etObY9o9co7ms3lJElsWC788b4juhGlkFO5oWTkLXoG1ky2+8BArLkHhPWfWO87hJM/M26iTfnyHDxk3awewVPE4I0qednlPkEYmryD5c+2HpgZyGSDIwKYfh07bj8lly6Df337JwnGl/cZHVKlMXJxIicfkrBtQ9kgZl0E+ecy/QO8mldTJ5UemynoH2Whvrw+uBvA7QFD6fsEqLomLCSrSDGeM7L6HD4RKX4RCCG/WjiO4dlAZjuy0I+MErocJMGhjdx+p9t0saZRDAyGhPLsnwszhuZx3FHAFh92AY41elEfWC3D4qDfCYAkdX00GboZNsWtw3UQ2SmSI88u4Qovg3Bxvj955dJ2jbGpzri4yKDm/SDQRwSg9cTG8sDHQlBayxuZAjjFWQNyfLHZTGfM6hvq4EsKWO7PgPCfrv6tVhVfL5Uur+AEL59IADmNWILsPoYsuwSopgssDH+xeXTJDc93rwxPlYKdPFGsx2Nw94wYJCYLD4uLAtxkfP1VU4b8rnxnMFMnpgs3OHs6ssiC6TFIxVrF/vAHU99YPlS6VU7+va5PQm8vwGsjs12CdGzB9yc25C9d2rWOseEnQPlI1aDk0ycLWv6koqrlAUD+nrA0P6ezfPigm3nUEwnErh82hlwyJBddxuRAEJQP5V3AIO7dowazBnUb54HnmcgPXZanB7oFbfP+qalUl+EdruEKCbL7XNPq52njpG0bYxPsl4wVigmy9eOzqnDVy+Q3NyyMV7IMv4Y2G1IMP4oIgtsjP/z536o/t+920j+710/cKmCSUURWQTTiREhC/82kgv/zQSeh4JvAEGc+8bU8K1AkIeQLOO0FUQ7Hx+Yq79pCF8DXRx8/XQZ5bcPNwYgS+cz5UqQt5E9fE/gyeBGDXjXYCL5+w723gFHkeANKhu1ZHTZEIrOlCsB3Bb4LcL6HN+McrI4EqDDmePNrcWEGQHiMhBfR5YgXtAV4cjSx2cWIoj9wzjNE4iRJXYsHw0wrtbprnyQzuoMwoKuGNgDbkAW7S64/QSv6+vIwh1Pzx9RvrgMpCeeWYK6BJ0xJLLYv8mJTWSBVPfM4g8j5s8sri7zzNIcJ88sG8PAyBIDCJB1kSdHFhvOKs8g34Y2hqGQxc+S5oFGFlotBghHl1bIqLJhDG1kEYwfhCyCbARkWdBkuf722yIiSTmzzMgyf2bFvKUTEUnJ4pmzk3FMmKD/AMKM/TFhgsEAnlnkmDBBFoq+DcnG+OlEEVmGsTF+mKhu7MpDPMXRU7DdioNCGVkSC7b7vTF+mBg9snR8e90jFJHlrgPPqfd/5y71Kw9/meQDD93lUmsAczzmlT0ufUxNGkLcjMlnN6hjGBwWv/LX6a4+EHSKzwfGhDxoVDvTDWXDPABWF1ZE+rLZcdYHPwnqEddryDLrNophX2F+C+ugfLO6DZeHt5HqqzWGDZs6WRprw27ow/5pQL3c3nVtpco69GxkadsKAoa09sWrQneSK28SuXNZmNIBWC6RjkYw2excEF3dmJbI43WDKCQnOoqTDOOgumjUqGkbSYVl237hhN9esA2ebsv4kSXQw7ULn1Uye3tRfYm20mUtisny5VefV/vPL5E0b4z3nfNAp2ugs3kcD0MH6AoAgboS5dFYHC6NDFTJE+lm0lOb8iEf1yE6liLRNnekJxo4DevwZPH+Cdux3cKyCK+zH82c1NlBw14IUBbrq7ZVVxZQTJa7Xt6ldq/Mk7RtjA+vXlA2IoPVNE0WIhNHIh0+K2WscYJbSZSnZGSpIFFvlSzeybzeNKm8LkR0DZvX1xMSzaHO4cbOszTCpNqqLasxsNuQ1sJfUa53oKD5G5xpNU2TBf7CvCY/xKfJBMaz+bwhTByzaDVPVTdTp8uTfGbRwqo0iOvljkTH8DzJXzgBh2L9sEDdNqzJ4dp1fTb2QDu4/CAmf63DXV6vVLWtfpDl9rntasepoyS9+cX4/oCuGsGGEJAl95gwIAtsjD/y5kWS3vxifO/hr0DBRjGwY8IE44+i2xBsjP/oT/4leN3/yWced6mCSUURWQTTiSGSJfy2kwf/ldF/O4q+9bin+7Yne0F3jNfIop1vvtWwr8o8nNrqIds/eocBkQW+36PTYHSA0QBHlvA9gX8F4EYI+P5vGUKjSgAiC3sXwUYbGV16h4GNLPTiCZyLJCGyOBKg49loYW4tJoz5OZB4EI7qwbysLsHGMLjbkHMaON9e6YwssWP5aIBxFacDOdgIEoATi4cFG8EAn1nsKECvzpvIwomhiVMdWRK3JCgT1xOHBRvCQB9w/S0F0EAWSMVvO0AwE8cIAgRyzzg2jy3vvw0xIskzS88QkqXPW0Gy52iSI4sNZ5VnkG9DvQOQZSDHhHWdo0m9RwlGlxzIqNJTmH1DgzgmTDD+CEeWPj+zCMYbwTOL2Riv/xARSQnchuDTkGVeP7MAe0REUrK4xMgityFBE4AwQhZBFoQsgmwUkUU2xk8nisgybRvjBRZlZEks2G7bGE9LFNQy7JocEaAufH7Kb+msRcubYb5FdZIQkiXzdT9sjOe/Fg/yS5v/waU2w5Nm+Kjqwme2CzHBUwxAls5nypVsBbGO0c5g8z3V+R9w1qwWFzf3iNsB6OaDYILR/Q27+aAMdzhtx4TJR5PPl4V8FGcIwXWxJDmIeWa3sEVVVs+AVEiISjswd2X/hvy8TSxPcbPQz3i2HPPpenRfoK+jRLyiM+WALHe/8jO179wSSe4vxuOnDrB1JnhFgwOZw50x0Vl+b67PR/VBLBKI3Qb4tlE0PI+zZVn7rk2dyeWHtqLJS04W1zjVxcthXfp/OwEa1k+kreSDT+zr6MCOLB3nhoAsd738nNq9ukCS84vxYExuVLyarFSNic61ZdCQFlWH+zgdcqMGSH0+H4ftcse5MCMEAXWr6MjSaBRkehxMXCCpfJrsnWbXB4SePeDm3YaYUYORBcGclXCEJ4O/8rzDMY4bOpXP1+PjUmSx+eCQnaqaGWSJ6rJgcdD/RJsWvA+jg2Ky3L6n28Z4bky82v0zi5bYcClHQLq7+qonG/g4yI9XaeqkAiId6YLtgpN0OZ8xvQYHdUvp6PTBNv2IYZ1PcVpXXAZazTdhZLlnyBvj/SjTP4ATkQy9QWpkGR8M7DbUa/SbLPZq7/3VzUcRHMDGBUVkgY3xv8Ve9YPIxvjJRxFZBNMJIYsgG0IWQTYCspxaWFarZy+IiCTl9MKKPyZsYWXN7AkREUlJ8EtmchsSNEGeWQTZ6BlZVq6uu5BgUlFElhdW5tV//J//rH7zyW960X8LJhtFZEm97p/k3xsSWBSR5b7De9Qndj6qbntlF8kNj+WtZ9Eht+51+uBtMJ4oIsudB55TH/z+PerDTz5A8r4HN7nUZoy7wTaCqSRL+eInvx7FLgfBNRw4gwxT+PVrcGt/8ct4ANaAYD0+nGwDy2mxzouWDjiPVst6BLrwOnk9GOfKTy1Zbtu9VW1/7RBJ7uInMhhzincWGN05hi08wjW4UBbXl/AlClgn5jN1Q9naNtzSA0rHNBaXLOvBdaE+AXBBlL7XYn5MD/KNIUKydFjdf+/xferYtcskbYufKgYDMtCVBwIOZE5JrELzxoaRg5f1J2rDKAP56G+Wp9JGE1mSZT28LpCV59NiEkIdIYqXGUcAWTofEwZk+dqRPerQ1QskN3clS3DlInLJAsnVW4Mpr506y0eYpjZSZHGES5f14LrwMILrx0fGhipHHkXHhAFZbp97Wu08fZxkEGtwA2ODM7Gsu3IBtk4/CjS2wQhB+WBtbBxHZT1CxwNJfd54VMNfCRt3soQjSx8fcAXjj6IH3MdOHVafntuivrd4jOTGJ5o3mQnGH0VkuXz9mrr7wHPq83ufJvnp/HGXKphUFJFFMJ0QsgiyIWQRZCMgy/zSmjq9uCIikpQFzQ8ZWQRZkNuQIBshWTJf9wumE0CWzseEXbr+lrrzwC41u3c7yZOnj7lUwaSi6Jiwh0++ov5677bgDe7v/PhbLlUwqbAjSw/mhtrX4A5pOaVbVzLWk3hsUjWFQR2lWvSAC8sqf/HBO9WvPPxlkl/49pdcahrDcRabYZ5UtBCplygiS/dZZ5zCh6UJ4MAZd5RWuEDIdjqc7rcE4/nc8gO2BIDi2LIFXBJg0nUlnqysLrYcolIXOEHraf9mOrkysHwByY9hak9LVW/sH8ThEgpP5mpZBiRERU9ff7p9FteDo1SLyfKPh3erVy+fI7m5ZdYZFLSKgeHRWOzWxBcicedbK1QWIqWOL/UORIeEzrBVhcshyQmuftIzFQdwjvP1oL6+LV3CtQ+fuAgK0zGNx6XKMnCyJPQkPSp1sDgoW9sW17MexWS5Y99O9ez8SZKbsreCcGVtPLLcGoKlpxYn0eJpnQ/LmbiEkVld2H6wwg7rJ4MzPVlcsAgKBDJAWagbHQh/8zwVnVCXRFyyrMlggbo06Zmqo8dHqQ7oNsQ6R0aDoO88hJvIQjBlDrLOQUetccNbA8T5urB9+OQGb3UCjwtg24XTMG0+pjchQQweB/0zcamyDKhLo56pOlhcY1tcz3oUk+XO/c+o58+cImkbWaBTlsVcWR1GhtM9Neqg9TC7GmynwFh4ZeDxpWF9Jpc2gg17h7s4yIPtNDoBwOrVwvPyUcDrBAJ6psjC8mmy4YmV1bIMqEtKT2cbCKfqyGurz2T5ysEX1IGLayRtx7ELhoHowsNwIQZ2GxIMB3wUsSNrOYrI8hL8sMMT3whOUfj9LZtdqmBSEZDljcUVExAIUphfXPVnyuWOLILpRNFtSDCdCMiysLymLl5aFxFJCixRCMhyQUeKiKQkIIvchgRNkGcWQTaELIJsFJFl/9kz6kOPfz14KfdH2x9xqXVgyxEGCd0ozod0eoMZzA1ZZNWRKNczuL4MC0VkSb3uz//F+EGCzY30AMMlS95kXz8RkqXDyU/xgu0P69GlHjhri7POM26mlM0Aa7FGxrx8PoPncwbTTsE8FMdmp6EumhfRlXhHs7qQSKm6yOleH1g5F5OF2sDZZygHh/fwuoJZc5ZP12fypNJZu2YGHXU0OrM01ge/sg8BfcX6MFxjc51mfQJ50wCydD4mLLUG999kr8GFjmKH2K0JDGYysHSMozSPQayUQ8Jh03y9jEVCV6grapPfPnj92GYqHT5RT9s/7BOrA+D0DOpjIJ1BP6NXi80bUHxMWE8WP2lAPLLcdpalM5L41WqJK8/EeWN6+Lqw/a4r5Xj+wEkAph8hVZfWgF/NvH6Lanqgp4Hvn7eFE1uA1ceg4yEddOF6BWW5zRsQjiwdnlnu2LdD7Vo4SVK0rJJ30HUqSK91xuBWynm9w/otdP10Rbq2EnVxx1MdLF8qPdaT/2I+14nA6gthdaRDGXk+He5KlqIHXLtg+yxJ24Jto5gZAbhi0BFk+KiulPN1pp5ZbL9selgurIvyuMMIeb5kekJPM6KgjVx+kEp9EUw5Tmosm7J5A4rJcu+JferEO1dJbvmBLH6adBST5QsvblFPHX+V5MZHm482FYw/iskiyyqnD0VkSW2Mv+HxltX9grFHEVkWr1xSn2XHbYDcf2SvSxVMKorIIphODJEseV/XQsDXyfirM76y5nHuvUXD10lBd4RkyXzdPzRo5+N7jrlZfG+AgPcHLg7eW7iM1XyCUgBZOh8T1h3MkWZ04C/nIM29JNLiyeBGDXhJZSL9qGLDWMaNIsHbXjZqyejSMxQdE1YCepsJTg3eGjIi8Te2zvHm1mLCjABxGYivI0sQL9gI7MjScW6oCM5p4Hx7pTOyxI7lowHG1TrdlQ/SWZ1BWLARDPAB195+YH7F8qCBLNzx9PwR5YvLQHrimaWeZIKuGOi3IX9LATSQBVLdM4v/ZTH+zOLqMs8szXHyzNI7DJQsOP3eiuTIYsNZ5Rnk21DvMDCy+On1PNDIgt92DMLRpRUyqvQUAx1ZBOMNIYsgGwFZZK+zSJNUNsands+LiIDIxnhBNoLbkBwTJmiCHBMmyEbRt6GyjfG9Bu6s42+A7c4+eJPb9eWdQT/fyzjdBo1iWyRQRJbUgu323xvqLapG8KQZPbJ0fJk4oigmS7eN8c6Bs24zFY4E8CrfvKUFccaEV/3ub9g8ZnxHcVoMC2DSEP7262IO6vox3ZMF82lJvD2GfLZt1w6QBdbPmLhYnyjfDJTVeVLpvF1QBPtpdEjoxOuDvw3sxKutD8Pw6cpqscSG/s8YHW7d5HcxmjaZLXxfWbspWzegiCylG+Nxjoc6YO8jBriF02/lBKPGcays+zT50AnOCNU8GuCQwBpQPyMEZAQDR3Xw2wfFOUfYyGo6fGJbVnc/siR14vUx0Fwa6Gf00v98Y27+jPUDwk5/LFuvk/+0dXgb16Fnt6H8jfEa5DhQEq+U0KgAb2jMYwXK+vrQQN5QmObnl5yQAhpkbAbSi+sbtm/iWL5UOie3he9XUqegPgZHIu5oCAdlWb8Btm2wa0hO3x/Mk7K1+6MGxWS5Y+8O9ez8CZKcjfGhI7iyELbKeqVTcR6+8/Vk4QaqwhuU6kiQhbdNVzrLl0qHsnV9TepURxanY6dN7ZBH2w0vDGyPt4s6p2zdhGKymI3x62dJ2n4VxBgQOgFXBHOqvUp0R7TipjN0H7X5TQcozoq1kTaWGY3QWNBhna4TvWHA2L5cxSGmjrDO0MlRHniegXSWL5mOukC866sZUUw4oROvL4IdiRipsaxuK75ILCCPdzz2w9sE6oztymzdgGKy3Ht8nzrx9hWSW57ocBtqQFe2CyIAAQLy1GNgI8sXXtyqthw/SNK2MT6XLJ7tcPXkFBAQnO2yzdbR1iFZMreClDzgCsYfQJbOZ8rJxvjpRNGZcrIxfjoRjiyZzyyC6UTRA24x6Csi/wqID1Y5cfDU7l8kCQaLAZJFO3oW3zn4r2kYhm9L/h1FfRw8wc+agGDQGBxZaFQB0sALpXAU4QTCr9mpOEscGV2GgYGRJXS2JwG+Is8nSxgvGBwGRhbvYBhZ/BvGJmLUkYWHBYPDEEYWIIF/y4iEgPSsZxYNGVmGgyE8s5g/Gr/5pPL5OHlmGRZCsvTt5CdAePsphnwbGhqALAM4JsyhYSo+DzKqDBMDOyZMMP6wI4u87hdkIHhmMRvjL66LiCQFHlMCslzS9yQRkZTIxnhBNgb3nkUw9hCyCLJRRBbYGA8/c8c3xv/h1odc6mCRmica6twRLIJubXwu2r7RS7Bdiz1GEVlSC7YHvTEeIWQJ0c++F5Ol68Z4eHtr5oLYPI/dQAWCE4PwhhbjMB8Ydoa2OPgy9k2uMc6sq9s5gAxm2rT54rYgD71NhnyzmxXf8ulX5vn8vHytXhAXe4ttufB98mt6bPa2vqfSWbtGd53fhGOdWRuztj7quwbUgSrzcIwispRsjK/MFAdXIBgFHN2y8Rvi8Ip0Uwfesb4NiDMEwvqTbeEnlENn2PJw0DKUt8bXn7xdCkd6Yf2GeNiWhXcAtIH1OntQ2Za+p9JJFw1mD9uW7x+Ute36PnJAGSIntVdFQJbcY8KK9g1BxxzLjTHNVe/+NmKV5FeDNTrrtDMIhzcOJHuy+PImwddpxLZl83sDWaM9ookCW2Bn1SNzzhlBu8zhKb3I0QjMz8HKsvyNfdeopDfZg9vbCPQ1pYsGkg7sFOgeouiYMCCL2Rh/+gRJ28Z4D6dwxagavPOkeGTYyMhkHI1gZNFxdEWn2gJAe/pKC0il/zaz2i7N6BO3a8Jph5s6orbCYd4RNC4L7TX1PZUe66XjvD1ColnUkMXE63Jat5h8HMXPLLAx/uD6OZK2X4wHgyHLUSEeV9k0btbpujjWaX91hcQAxGQxBnP5qm2F6Ra2fV/WOzlu16Qzvah+IBgWIti6TLpJY2WJaDxPqu+p9IReQCRmG5sGAiSpIwvm5baoopgssDH++NvrJGP5i/H8yhS0opgssDF+64mDJGP3i/FAFH3FVQYBQS2KySIb46cPRWSRjfHTiSKyyMb46UQRWQTTiREmC//amAv/1dB/VfZfB/lXSfz6Xonj7zMEASZrZNGONt9u6N1FGE79XmJunCAmSz+3gpiXRXi1W2fAK/UZmByb2aRudXE61rxN9G852csoLcgBHDnSvyjPQGSBdKwHR5tUnIaMLkkAWTofE1aC1GnacAvgtwPrU3xRxsniSICOZ6OFuY2YcOq2hcSDcFRPqm4sz+oXeBQdE1YGcEx4FRNBAM5BnkDofEYCdCK/8jGu4mBoj40WAVidBB6XSheEI0vfnln4LcJf7QFZXLw/vBcdxhyXIgbc3kyYO5i35wBlUvXEcXFYQBjYA665XbhRBU/TDsni8lBEA1kgtTJxxwgSPB9BHlve6+CJlIoLRi4BYaS+DQEBOHlqwa98GllsOKt8C+TbUBojQxYzUuAIkoHUe5RgdCmFjCq1GKmRRTDaELIIshGQBfY6n794WUQkKfBqJSBLakO0iAiIbIwXZCN8Zunn3JBg7AFkGdyZcoKxRtGZcqO0Mb4duJOPTwcgUnHdEL+FxknSVvTzfY7ucD9qtiNLx7mh1ILtYW2Mb4N3Zr/JAi8E45eEDegbWXrwYrIGRe9ZgCzD/cX43Po0GUwY6gFiwOYsmx4TqPJGGOrCIQPDdXpAUNc/p8vVjSyQL65/ZH6dHurFdB6OUESWUfnF+Jz6MI3XpyPd3JIjC/0NYHHOaDhnVacHFdXgeTygbUYIWxk5kOpgtw+Kg3zYQCIdPnGEsm37kSXQDUgC+Xh9BK8fry9G8cjSdd9QUnGjpGO+cWQ4hPrOYx4rUDavPt6uIwEEY7KAAVn99qqDdqEONGSGHhpJsgRkdCCduY5hG1ZFny+VXm0P8lgb+tHSiS3A6vOwFwT22UVGKCbLl/buUM+cPk5y42PtP9UbGsd3ynbQKuk7n4rzyK3PO6KBLClnapg24FbhytXpwYsmyQLt0LDvCRqThZfF0UwHKF8q3egY1OPtEOtmUEMWiDd7qEnPKorJAhvjD105T9K2Md50SjvQMNwZH+Is63WntCFMx8BxLo4WQlGcFTJSTn1gBDPKNJDFZPP10/3dtUvGrdHDVOWQJouG0cOXg79jsgR5gKSQzvIl07WmNNrwvpgwkNSlaanUF8Dl5Z2JUEwW2Bh/7Po6yaB/MT63PkHvUEyWL+zeqraePEQy6F+MF7IMHgN7wBWMPwKy5B4TJhvjpxNFx4TJxvjpRNFtSDCdGGGysK+62QjfMQRfGYM49y2r9mukIIXJGlm08/EbUnU7B7xHcHHwvsJllG0f+RgcWdgLJZzE6t/GeAhjGTeK0Is4ABu1ZHTJxsDIMtiN8VEZiK8jSxAvaMIAb0PgwPBqJ4IAnNM8gdChCcfy0QDjap3uygfprM4gLGjCgMgS3yISZHHxNB9ETkyQhTuenj+ifHEZSE88swR1CRoxuNsQ3C7cqNL3jfHwF7XXHBeMUoJGDPA21A6cdm9FcmSx4azyDPJtKB8hWYa4ut9Pq+eBRhb8tmMQji6tkFGlE4AsAzkmTDD+GOAxYYJxRzCymI3xFy6LiCRlcSnaGH95/aqISFJkY7wgGyP11Vkw2hCyCLJRRJbx2hg/OOBkafxmuh3LuqwLjgTYW3OGIrKkFmyP6sb4gWEDL/i6k6vf6DFZOv9iPLyiN29ctaBlWBwa2s/f8AlF3NCu4+C3lk06vKm1b2xn3dvc2TmdNy5r/taCnQenzkAbUJ6lO518+9W1M+l80Bbo4ct45zfXH24Em1H33++XbICeUMbUNevWAmEfUrYkeF38uiFWh86P/bFt8fwYp3XqFVlgY/wHv3+PJsgDJO97cJNLTYPv1ENj+rkg6/T6X2Z3ZcGALt2WtR01dRgDeuNAp7EdA7zynRMAmA9g9eNGcjrpT3+LwHTQybZl2rWdobqq/fPhaps+v68/zM/1hWDKlgTUh8HXEdnLtMX6R2W5HTxCsmS+7u++b8gqiey1DD7onMHADG7LQDpTvOIQzGMigslFyAcG520ag7E6uNENoA6en5MU40CXhEN4vRXdAC6dO7dKFozzZORptg6wG9fRj8oI3++4fq6TtyukU30mYz1ZOh8TBmS5fe5ptfPUMZK2jfEVx2iEV55OP4hs1yDml5MlMDQiqiOsL2EkXi/XCUcW1K+iGzSVHll8XJUsRj+4TbqIqo6+XCsqdkiQhekN+ZvIUnRMGJDla0fn1OGrF0hubtnrrDUOrlqrPBidM9oaxOZBgzDFKw5pJktQvxYTx41jjOfSXRu+fRCom+eBZyfXHhjW5TPNuv5B2Dsn3T+vpuujqYv1l8I2f3wAALYVtI8I0qyuvs0EWQIdoX8uDttisCNLwTFhZmP8tXWSto3xgkyAs5mjOLmGjeJvQ7ft3qq2nTxMMna/GD+KYKMTYiLIIhvjpw9FZJGN8dOJIrLIxvjpRBFZBNOJgZEFH9SaH9jY20TByGHgZGnCKD35C6oY2sgCn/hSyb5swpdDmW8nBQPHUMmCb1KTr70FI4eALLlnypUgRRYkhpBlPFB0plwJhCzjj6HehmKyhBNqglHDwMgiGH8IWQTZELIIsiFkEWQjIAvsdT534ZKISFKijfFw/kZ6U7SICCy7lduQIAvhM0vm6n7BdALIIseECbJQdEzYCyvzsjE+gfKN8Qnouob3IrvHW0FkY3yEYD/SRpF21uBQT5bOD7hAFtkYz/X0G9Eg2Y8szfVznTAO7EB5bGUVu5n6483yBK+LbIx36bas7aipwxjVGweN7uxryhpDQB0uEvMBrH7cSE4n/emXemI66GTbMu3azlBd1f75cLVN/+nh9UjZDT4D4rg2DFAfBp8/spdpg/WPynI7eBSPLLIxPtC8WTeAS+fOpfZ5u4GzUnYL6+DtIny/bf0+P9fJ2xXSqY2g/RDFZLl9brvaceooiWyMj3WDptIji4+LbYL98Xqk7FbV2wSrqNghQRamN+TvC1lgY/yRNy+StO515lePFqs8GJ0z2nbe5kEjMcUrDmkmS1C/FhPHjWOM59JdG759EKib5+nPxng+AlrdXJu2sordoI7KZnlEkN/q6ttMkCXQsX1jfBFZ/unYPnX02mUS2Rg/OHDCDRLFZLlt9za1/bXDJLIxfnAYO7LIxvjpQ0iWzNf9j506rD6zd2vwnuXGJ77uUgWTCiBL52PCLl+/pu48sCvYGP/j+eMuVTCpKDomTDCdsCNLx7mhEuBDWfPD2TJ7WyoYNRQ94JYg5wl+WE/5gjwMnCz8E1802RdL+HKo+sZSMBoYKlnwTSq+ycQ0wWhiqGRBYghZxgNCFkE2RoosOiDPLCOMgZFFMP4QsgiyIWQRZCMgSz+PCROMP4JjwuaX19TZ85dERJJyJt4Yv37lTRGRpMjGeEE25AFXkA0hiyAbRWSRjfFp9HRjfBK43ie9VaMMfHtIM4rIklqwLRvj+X6k/qA/JOwzWe47vEd9Yuej6rZXdpHc8FjLL5nxzU/YYxaHhgaD2HUuOEcEV9GEb4yvyRdufud902FXNtQDSrK6tLjqPCo2D23YRPgissjGeNDJtmXatZ2huqr98+Fqm/X5AuK4OBvl9Ki1V6Qbg2/L949siPVCMIGe3YZkY3yDbgCX7h2O7bfnq8Y5m7A2k/aq6Bm1ZcDjupAlcysIkOX2PbIx3sa6MhXdoKn0iOHjrE3q8sX1+bKuTdLHZKrai+vuULF5QNZE/xmALJ3PlAOy3CMb4ymfadb1D8KBU12e+JYC8BdQOl9l87tpE8p4m3h9E/ZKkKXaVj5Zis6UM2Q5tlcdfesSiWyM7y04qUYF4cjS4Znltj3RxviW25CgG0aVLAN4wBVMAorIAhvjPz23RTbGTxmKyCIb46cTRWQRTCfGjyzLy7Vf7foH/vUyH/jV2H+99e84+Fdv/LpciUt+9R0exowsze8BRgra0bPmxQfX2YeXH5l170U8cuOGhcGRhV81NIczq2bghRcYMJEOBueTXnSF4lWH+d3VF9RnYjQgH/6NYV6WvdK3L8FuVZv0JzrIvvHEkYW9oNPCXxBaPfC0Ryjn6/DwZIF6sR4/sFTjjM4jMrqEZMl8g1sCXOsB4MMzGTyR7l9No7O4sb0z8J0Er89DlyFyunR2K8OyusLgdmDrwbKcLNgu6uJ1MnWYMOYPEfaH1UNtxHEujPUPGUCWzseElQEMgFeONQo5yiBOTxkcDQdpmNcKODesz8OPDuiMsDySxRPNtUMEQl24Ti5PcOWjfviJsO2ldPN1c/C4VPpwMKBjwuLOx2RJp/srEcIQ552QGubryAJEMLcId7XystRGQBabB25poX5czwQx6JbH84XtWegylZEjFReHhws7sgzomDB7JWuHauOBE7hzU+nWqG4EMBHgBBcOnjusU2vJgvVgIpAHy2kSGZJEZDF5yElNZGG6a5Lj8xERJNKTnsdIB0akVNzIPrPIexYCECAgTy3YlU8jiw3bb0Mbw3R+Gxoj2JECR5B2+FHR3zYBqVtlJ4zQqAIIyLIkZBE0YGXtvLp2/boJv2f+zIr5aiQQxLh27bqaP7Pq/tJkWT17wQw1wKDUxmiR6RTLi7Pq7LmLjiqaLLBcDhLnF1fU8uo5Q5w6ge/cKKn0WBYWV5PxKelad9f8ILn6dK27a36QftmmS16UWBfgAYwonChKKfW/AEbB8Q8B3LK9AAAAAElFTkSuQmCC;" vertex="1" parent="1">
          <mxGeometry x="750" y="20" width="139" height="833" as="geometry" />
        </mxCell>
        <mxCell id="fQiEGHonLtwZmzi1E5y7-4" value="" style="shape=image;verticalLabelPosition=bottom;labelBackgroundColor=default;verticalAlign=top;aspect=fixed;imageAspect=0;image=data:image/png,iVBORw0KGgoAAAANSUhEUgAAAIsAAAFuCAYAAACx5+t6AAAAAXNSR0IArs4c6QAAAARnQU1BAACxjwv8YQUAAAAJcEhZcwAADsMAAA7DAcdvqGQAAAASdEVYdFNvZnR3YXJlAEdyZWVuc2hvdF5VCAUAACtmSURBVHhe7X3pk13HdZ/+DlWqXOY3s2Tng/JFkhXLkRKJpuiURVqVWFyGAAFQFm0mlL44dipVk6qQctFVYkmVKjFcQpC0uQxAgARFKuQQO7iBAAERGBAriWWWNzNvNiwDDIhOn+4+p0/f2+8ujTeDt5xf1Zl3p/v0cvv87rl9X5/b70tHjp9RI8dOq6Mnz6nPzo6rM6OT+nOiUE6eHoumt5QzkbQ2ifSltdTqT6QvZ8411Cldx9ETZ4186erVq2ph4aKamGyqmdnzanrmvJpsLoiIqKbmQ3N2QU015xTAkGVyetZkZJU/O9NQI8fPqsPH0mTk2Bl14vNxNTE9n6tbpHtkYmpGLWmeGLKMa68yxTzK+OSc2nvgmIJbVEMrjjeaSTIxOaOOnxpV7+49rM6ON4MOiHSPNOfOqwsXLlmyjI5PBZlAkrGJaeN62oHzuqGPPzkRtCHSPTI1s2BsGCXLx4dOqqWlq87U7cEnRz7X7cwE7Yh0hxSS5f19n6pr1645M8fRbDbV4cOH1YEDB9TExIRLbY0Dh07pJ62wHZHukGSyvPXWW+rWW29VN910UyBf+9rX1HPPPee08hCydK8kkWVwcJDI8YMf/EC9/PLL6s0331QPPPAApd95551OO4SQpXulNll+/etfEyHuuusukzY/P6/Onj1rjh9++GHKf/DBB00ah5Cle6UWWY4cOUJEABkZGVGvv/46/f/YY48ZvZtvvpnSNm/ebNIQQpbuFSLL5ctX1LmxYrL87Gc/IxKAAO699176/6tf/apJ+/73v09p3/zmN00aQsjSvQJkmV+4oL4EjDk7OhlkZsny4YcfEglA4CnoV7/6Ff2/bt06o/eVr3yF0p544gmThhCydK8AWeBr/y9dvrJU6lkA3LuAVwFs3bpVbdy4US0uLqqf//znlA8eJgshS/cKeZY6T0MPPfQQEeKHP/yheu+999SJEyfMhBbTb7/9djPxzULI0r1Sa4LL8dvf/lbdcsstRA6Ub3zjG/I9S49KMlkQJ0+eVENDQ+rZZ59Vn3zyiUttDSFL98p1k6UuhCzdK4VkgRVieKRuJw4cOqlGJ2aDdkS6QwrJ8umJc+r0uUln5utHc3ZeHTh8MmhDpHukkCwTU/Nq/6ET6uDhU+ax+vS5RpJAPO/I0dPqvY9G1FhDvEq3SiFZUM6MTaujp0bV0ZNjyfK59lCxukW6RyqRRUQEhMhy+bL7BndqVjWmRUTyMjUzH64NXb36hZuOCgQhZuYWVFN7F/IsQhZBKwBZgrUhIYugFYAswQS3DlkuN5tq709/qi6eO+dSBL2MZLIAUd5bt06devpptWfVKnXRhVUKehdJZDFEWbtWNXfuhHdB1NzevWrP6tXt8zD7BtVNA0Oq4f61aKihgZvU4D59GM0XLDdqk8UQ5f771cyePYYoKAv79ql316xpD2HKyCK4IahFFiDK+z/+sZr74ANDkMVjx9Tev/1btXDggPn//MGD5tYUJYwhwIAacHEvA0NABU6ArOco0OVkguNAT7BcqEyWK7Oz6oO//ms1/9FH1pNoguz60Y/U8C23qO23367mPvzQpF84dMjcoi6Nj7uSDsaog8rwgo4LyFKkC2mGLPvUoCaJSWsMaXK5MoJlQT2y/OQnal7fboAUQJrtd9xhyLL1ttvUzO7dJv3iyIjxPjnvQgbWMIYdUEONArIU6WI+5YGiYLlR+zYEhMHbjiGM9ipT77xj/r/06adxogCMh3CGNcfeW9jbB/MSBbohmbKeRYiznCCywPYap06PV5rgfvg3f6MuQAilPl46c4aI8sEDD7Se4BoD+3mIMbBGY2jA/A/kGAjIIHOWTsP07Lw6dvJc9achgCHMgw8SYRaPHy8mCoAbWNCVqHUb4rg8Pa0++ulPVVPPVfY+9FAxUQBClq5HMlkA4GEqEUXQE7gusgj6C0IWQWUIWQSVkSPLVHNeNWdERPIC29sGZDl/4aK6cHFRRCQnUzNzchsSVIPMWQSVQWTBbcKELIJWALLIqyCCSgCyBNuEFZHlf2yfVX+5YTKQ215oqDuGGkHaf/l/TVdC0Esgz1JlzvJXr0yarb+43LOpoRrNuSAN9NoLtuLcAvsGWbCUrEEtC2pNcIEEE835QO7c2FCfN+aCtL/auMJkMWEKEiW33KhFlv+kyXLv5kYgP3hxXA1smgjS7tC3ohxMcJKNOwlCJnNxK5CMetlYFvvJ9QaGRkwa1cs9iyFRWLePn9FS5KoEOdT2LPx2A7J/5ISanZ0N0opvQ5kgJkccY8Ts7YMM78t4PYiSy0bT8TKx+NyQbIJ6qEWWO1+BjXkmAvnwk6Pq9NmxIO1uPY/JwxoKr2oiC/cC/Biv/gxZdKYlyVBWP0OWVmGWuboFVVGLLD/SJDh5ejSQ9w8eVSc+PxukDWzO/+6QvWWAaTKehRucjJz1Epwsri64fSETomVK4nN5GUElrNxtiK5oG2trDB0jiyOGvfJhPuNvH0gWWxc3viVGlTkLnw/JnKUeanqWSfXIzqlAntx9Wn+G6X/xMllxecAJIVgx1CLLyZmr6t2zl0vlyPSSK9F+4NOMTFJXHkQW2cxHUAYgi6wNCSoByCLbhAkqgTxLlTmLoL+Rm+CeG5s0tyMRkayMN5rVn4YE/Y2cZxGyCFpByCKojGSyrD9+QA3u30by+JG9LkfQq0giS/PyJXXH8Atq49hxklW7NqnfzeQXEAW9gySyjF5cUPe/u0V9ri6T/MPHW9W+6TGnUQWwONhi1XffIH2d32i08Wt9Vm8KYKmh9dpjQ/fVHfYokshyfL6pfu+5f1R/9PIvSW7650fV8OhJp9EmXKdxc2h3fQzFROoNJHuW7G3o9rf/pdCzQGgADqY99p7Fhw34yDceLgnlcAHRiFtx5gbaN2jLmrRBF5qgM7FuQxKodwDrQa+G4Q2+Xq8Xej5sL98XrMP2IXc+GtQP3bcB1+m8nq7HhZnieXUSiCxV95QDAFnW7n5VHbk0R7J21+ZCssAA26saBhaMgGSBAcqEG6AHYJ7Al4dkRgw3qDzNxqmwGBgIdII2dH0Uw+Lq5nXwdmOxLqhb2Bdoy1doz42lUf9ievCZIWgnIWlPOSDLwNYNaufZEyT3vPNy8ZwlZzDvWcwAmivMGZcZDY1CxtAoI4tN43MiZwxWn+mPVvRXtxMozPUYsO7CduH8eH0uICvbblQP+2k1Ow5tm+De/+5rJRNcMJ4eUD24duC4MR3YQBodNsjlxKhGlkLPgmDtcqBuYV8Cj+HA07APMb1eJcuqbRvVBxNnSFZt21D6NAQD6u/PaExwvXh1uTw0FgyoTrdjmzcQ5kM5mGMERmtBlsI5i5YsSTmw7mhfgASu/4G3csanNJiTuMJ5vR4ly307NqmDsw2S+3a8UkqWvkXMs3QhVvA21N/IP/l0H5LIcvHqkvrDlx5T333jGZI/ePEXalyTSNC7SCKLoD8hZBFUhpBFUBlEFtwmDAJyIUFEJCuTsA8PfxUEQv1n586LiORkcnq2+jZhgv4G3IbkVRBBJcgEV1AZyWT50y1PBl/K/clrT6iFpcsuV9CLSCJL7Ov++mGVgm7DDSQLXxXOgK36YgwuX+lF0IrvCiPWl35AEllGZifVl9c/rH7/+UdJ4P8tZ446jTahRagA4kaRpV/RNs9StuoMq65+lR6OvWfJrcgakuRjcE35SAyLRxibYttjMSIUKgBpg1pcm/uwTufpqA0trtONIYiF0f/rukZyfemPzYWSyQLBT++Pf05y79ahQrKAse2AgkHBKCz4KRvwgx6F346cgbw3gfIxsjCDEzEiZGHE5AFKYRu+Xd9/n+YvgIJbag8hmSxrdm5Wn8xPkazZual4zgKGAqOAccwI+wGGwQ+8QUuyhEbJ34ZaEKMoLdqG8yrMayBBQr3eJwgHkaXOZj54G/pM335Q7t+zMjG4pZ6lhBiWqEVkgaRsvT6PH4e31nyZXgOQpfY2YUCWu4dfUm8dP0Ry19svlD4NwSD7SDEkizYcXcUuDw0IBtfpYBAylktrOWfJkcUa1dSv9cs9iznwc5Zs+1yP9x0zexhAltrbhKVMcAXdD/IsdeYsE5cu5MiyetdmdbA57jQEvYikCS7gfj3BvfWN9ST3btvgcgS9imSyCPoPQhZBZQhZBJWRIws8EYmIxGQsu7Xp0tIX6tq1ayIiOZHbkKAyhCyCykgmy4n5pto69hkJxLgIehtEljrbhM1dWVTf2vKk+vv9W0m+9+Yz6tT5Wach6EUkbxN2/WGVgm5D0m0Itja9+cVfqO+9sZ7kXw/9subWppEQBQRfCS7aXFbnFeQysD1qXRm+ipwM1s8Y2rqHbwcgiSzgWb7zm6fVI4f2kHz79afU7sZpp9EmFBqDhRmUIAgpqFjmulFCpG5EMlnW7XlNnbx6keT+Pa8W3obCQCE49p6F4k2CeJYwBhfSML4EjAAEoDgSlodxtD5m9p/U35n0AfX0074MEQjagr1pIV0TaR+v12RDWVs+Z3skRK59ODf7P1RDfXX/A3z/IRbYEjivp+uBYDH9fycQL5kssJXp8IkRkrvefrGQLDAQ9oQhYAgHFD4jVzszAg5SUQgld/eo59uzx3bwWRlMA0O7NCBG0EcWQMXLEjhZnB6vl+qicpFzpvZjevAZIekNQjJZagc/wcDDYNDA4oDYAQ6uKGYENLgp73RseT64+hjznAfwBOHHvkzeqHCIhnF9g75SvSC2v4RIP3P1ZqLuTP9GIiSM6emLAMeoE5BMFtit8sDsBMnqHRtLnobsVZIag+uB5dDwvB7bhrVRG8iC/WmFSD/z9fo2PVgatGGOY3qRMbqBSCbL6u2vqL2T50hWbV/efXD93AFvFVBe/68zbb22PJAR9D1BNHR9/kr1ZUw+M3SOLCbNt4u3KwKWZXVQvazvvn8gtl5Kg7hgV29er0fIIjG414OYZ+l8JJHlwtUl9a3Xwm9wv775cUMiQTVwL0IesMNBZME95aqQBSBrQ/0HIEvt94YE/Qkgi+wpJ6gE8iw4Z7l06bIC4oiIZAVWnYMJ7sTkjGpMiYjkBbhR+2lI0J9IenQW9CeELILKSCYLbN5zyxvrSe7eNuRyBL2KJLKMXlpQP8583f/fP96mPpKv+3saaWSJrA3VicGlxbYWqBuO2O76BHEQWeps5nNsvhlsa4oyPHbKaRSj0LhsBbcq2l2fIA4gS9I2YfVXnX0oAmzvZYzrlvHtghoLIXCLa8WLbe2uT1AGIEvSNmGrd2xS+5tjJKu3Fwc/8asfYkSscX10PuWTJ+DBQPm4jnbXJygHeZa6c5bVO15RH02NkpQFP/EYWm9of+XT1Y7GDbwEiC8PaHd9gnK0bYJbdhuKeQJucPIOUU+QR7vrE5QjmSwD7wyp7Z8fJbln+KX6cxZtSPIC8DoGGNV5AMgHQnhPkL1ttLs+QRmSybJu92vq+JXzJOt2F783JOh+JJFlrMVtaL+QpaeRRBbAbW8+G3zd/2dazssvmfU0kski6D8IWQSVIWQRVEaOLI2pWfPL4CIiWYHQSkMW3Cbs4sVFtXj5iohITqaac/W3CRP0J2TOIqiMZLLI66v9hySynF+6ov7ktSeCF+P/w2/+r1kGEPQuksgSW3WWrU17H8lk+fevh7tV/se3nle7G2ecRgxulTgaJoDBSEVBSa1DDHg8S7Vw21hdretfXnRPIFYSWWL74ML/w6MnnEYEECpgLRpBFbKUg8e41MeNIkv3oG23oeLgJyCBiz0xW5YiIdBAWbLAJwYy4THXDWNSLEl0vkmz5XzsCtYD5e02oUbXEYP0IC9LFhYfQ/EvFEyF7bq0gu1RfV9sXI1OYVuW+vHI97mzkEwW2Np068kjJHeXbG2qR8J5FiQEoBVZYPzdwEI5o+N0Ix4KjUbGozL8GMiUbdeTJiiDALK4tgJiRMjScntU3ob+G78YnB72L3KOnYBkssCmySeWLpCUbZrsB8ATwgyoGUg+iC7PGQoMQoPPDMKvwBxZmEF9e9xo7jgwCs93aEGMorTcJobQhvMqvs98DJge9aUzQWSps00YkGXNrlfVyMUZkjW7NtUnC6S1IgsYT19pg+hh4P8WxsyRherlxxGy8DReBlFKDNe3IrLE+k15/Fjr5TxfZwHIkvTeEPyO866zJ0gG9G2pGlnswJurjOYJMbJYY/hYWTeAUA9dpTaPG7J4zoIG8Mf5vjDEyAJlXfs89rc1WXhfsM8xsmiY/ls9N1QdBSBL7W3C6k9wBb0A8ix15iyzVxbVHcMvqI1jx0n+/K3n1bG5aach6EUkTXABLxw/qP7X/u0kTx35yOUIehXJZBH0H4QsgsoQsggqI0eWc2OT5hFaRCQr442meBZBNchtSFAZQhZBZRBZ6uz8BHjm+MdqcP82kseP7HU5gl4FkKX22lBj8ULuG9xVuzap381MOI3lQrh2ZFFl0S1Wro1g25OtHKqcdx64dsXXq2gdiq1NYWgGB5AlaU+5zonBvdFkSTPaDUFjSA2aVU7eZ38Mv4Xt1kOjIM9SZ84Cr318ef3Dwbam/+rZR9SWM0edRgSxFVy+guyYnGe8NnRRVFlstRgGwNVh67VkgXAHSOMhBtgW6VFbWodfabj6zfoMOtQPKB89H33eENnH+wj1unw6jrQV/pA5kh3OBbwDGhn+x3L+3Hy//I+M823UPDxZ+Hhg9ziSJrhJq84RsuCnB2e8NbBdzs8u+zM9MBCVsYB6PSGgrB1Q25YfZB/czQfeD2jsx8UphsXohn3hxuDniH0hsD5jfZV/yJzKxvqMab5PujJHVOxviPB8WD1ETo9ksqzZuVl9sjBNsmbnK7XJYjvl2AwnxK9MI9B5fpLuGPRsBRpsYBzyVxCvIzOQvP1AD8D6l+sLAuuDPNS1Aufrz5UDdKE+qJ/1K2iLj5OGO2dPIN5u5tyi44OfCNvffN8AsfO8DrKs2rZRvTv2Gcm9W4cqk8Wz2cMaOHtCAN5xPGZ6dKV5+AG1x4P7SgaU6oi1hcfWgLzv2T7nSYrtu38YTB8hyDvaboQsLh0Crmwb2C4vi2mx8eF6sb7qMpy4WJ5h5W5DpjPuitMnDIMAg0FXohuVIM10PjuQ9pj0zABmTwz0XB25gcKB4DpwX8+2xfui+6sH13bRn4fts6vHnlDgGfEc3amFcLqc1Nm2smWNDiXw88ieG6uPjQ8RJNNPmo+Rp82THpBMFgirfHdUexUnpZ5FcN2IeeQ4PGkMMdixfRpKQ/qcZddmdWihSQK/PyRkWT4AUYInqhJ4TxUSLHarrIoVvA0Juh1JZAH8uy1Pqe++8QzJ1zb9Wi3I1qY9DSILbhNWlSyC/gP8rvMKbRPGnj7cbPt67p+ClUfybag+9Aw9N5WPpQk6FStHFv5sz2b14l26BytHFvjCx3kReKwLv2E1h4IOxwrehhjYV//BsaCjsWJkaeVNxLN0D1bQs7CnIcYOmbN0D27MbYggT0PdhBtKFvEq3YUb7FkE3QQiS51twgT9CSBL7VdBBP0JIEuwTZiVSRGRnIw1mvVfBRH0J2SCK6gMIYugMpLJIi/G9x+SyNKeF+PD1y6WB93XxrKulTXgxZF0JJElFrBd/8X4XiFLe7F8ZGGvhyQiiSxJL8ZDZzH4yYyGNWSll9UpHBP1Yml2oDHNDrgnC+XRi+I6b3DAv+hFL1jly/qBtmlhn1EPPm26z4u1G8Kfr+/noNY1aajP+pZ/aV7rRPK1AgWbQV98P3QuD0SzJxvWZ1LyaJtnKXsVBDqLA2jXhOzg2r56Y/j3w7mBcA2pKA0/AdyA8MnyYGBjdeAg0zGWdWlUJksm/lnQJ2qXgb8ApvPJqM6AuHZW+tJ8JN+/kIb9833ha3KGnFqP19cKyWQxL8bPT5PcV/JiPO+gBZ4EIDOoyHqTFtOLpPGrxQi05/QgzxkgWkeQD11gZW1KpN2sXkQ/2i6DIwgHGg/gx0yXDc4r1Mvnh/204OeAulaQpGwIoiCy1N3MB16Mf2/sc5Ky11c5c23HSgYXjnMG4iecTcNPDtRjea3qLfIsQRk0IOZnPwGRPlEdDDwNjvW558nC6/Xte714Pn/V1dbj++JJ6FGVLLXXhtLeSIQTcWw2neYniSfCdWIvq3O9bJo9YX/FhGUpTw9mniwazKPhoMXLwLHVs+THekr6RHWE8H3OkgC65NNQJ/bSfCzf9MGkaTEJ0D93DMTEPC3Z+loByJK0TRi8GL9n9BTJwNaS3xu6ofDGMwMVMVo1ZAhWina12xkgz1J7zrJrszp8vknS6S/G+6vPe476qEuWdrXbGUie4MqL8f2HJLIA5MX4/kMyWQT9h+4iS+R7iVK4R9Lg6YAmmu4JwaTjI2f+sVJg0fOeZd+gnZBmHzXtsSZQbtYZSxMAVows4ZdE9tivi2gxmfpK11e2Wa/5p7+jr72NdwBvgJ6Ff8sbfJkG/7PvGsirhCCyQD7Wwx5rxbvEsWJkAQPZWwgYFQzcUA0yiE4zxoLbAhrKP6ZSWU4WRwI0vPcW9tZijmO3Lf59R6Ye1PV1CThW7jbEvAN5DDgOrmxPEIA1GiMQGp+RAA3LvQGm5YwO7TEPEoDVGRwLCCs4Z7FGh1uEMQS/RdDVHpLFpmt95glakYUTg2553Oi8PQcok60neyzwILKsxJ5yYAR86tD/mduF9SqxdSCA1SHDFZBFJ9LTDv3sPyNIMD8CHVOe9YGxQ+YscazgnnIpwPlNObg3CCfT1cp76DYZcQQeK3gbqgvrKeg2UgrvWYJ5SeT2UwTxKq3RwWQRdBqELILKyJFlaekLde3aNRGRnOTI4l+OFxEJBV6Ml9uQoBJkziKoDCGLoDKILHW3CYMX4//n/u0k//Xd36ila0K0XgaQpfarIPBi/F8Ov6A2jB0jWb1rszrQHHcabQRf38miKK+b0IBVMTxczvPZ5982SACQJdgmrApZzl1cUD+OvBj/0fSo01gh9ARZ2HrYsp/P9ZOl9qsgh2ca6svrH1E3Pf8oCbwY/9rpT51GBPC1O34d7xduaGEPk+xiI6RlwhJ4+Wxe7Kt+VndpgBTp4Vf9Eb0WbZif23Vp+7Dv7mT8ueD5sYVLLabv2M+Bp9XTLm/wBZ3mB4RCO6it3PlA+QgJ2LnROJlFW9dOqz4ZvQFTFrsBSJrgxjzL/Xu2FHoWvtBnASfKTxqOWRqcKBRAQnBXjXW5vKBu1AcjuETM93psNTtSb0yvZRvOSLB4SQON50IGRO8Bn4yQJh/zIMnVy9Kg3WxbqBftE4NfUMX6oG+ufRxf6AEWozRmB4ZksqyBzXvmp0ju27Gp5DYEHXAMhpOmjlmYBbyRMM0gGEB/BdhzsnnZ8ANDEjZ4OKixAKlYvTG9sjZ8GWcYdlVbgXxPAl2igCzYLuS5elkeGjXaJwJvC4FtarDxh7bCOpgeQzJZVm3foN4fP00CL8ZXnbPYgeXsxeNMGnSYCOENSFeMy/OGZ8gNvP8EYB2xemN6ZW3kyIL9N7mI6mTRDeYCv4gMRefNQONkjt2YY31IFt4mtRHr+wrfhnJXAHTOpdFJZ9PwZHg63Ltdmj1RfXIuDyTMs23b+r0eBUjF6o3plbSRJ0vmnM1FECMLlNX5cOy8kW0PdMNxgb74ukxivk8BWL492TxZAh3ccIjpMaR7lm0b1O5zJ0kG3qnuWW4U+JXIr7osquotL8CISAoNRswbhWSyrIUX4y80SeDF+E4nS3AVRa4cj6p6ywXbfkCObiZL3duQoPuRRJar166p77z+tPreG+tJvi4vxvc8iCx1NvMR9CeALLXXhpYV7EuylQSf1FYGziPcU4x/6jCZft4TfXrJPh11PoAstbcJWz500+Dpvg7ayW/4XY071gQazE5Iq6Z1KMiz1JmzJIFffbk1GC1wReor1Rzjsz7m4RMJfdfACAX1Yj4ex9piZYe1F6EnC2hTt42eJfhuhNdr0gbNWhHVFzEykQXPBQS9TSxNt9AtF0jSBDcJLdZgcMDtIPuBC24LaBhn2BBAKl/G3hbybYVldRlHhOw3tPk++U9TzpEv6B+CtRHW49vIptljrL+zsXJkMVeQu6q0wEDlB8mTBQaTrkK8EpE0GdiBh7JYX76tbFnbdkg0NGhoRN8nn+Y/EVAuT2QLXieCp8XyOxErRhY+uLErzQ6YN0x0AFuQBdLNV9XO8LG2cmXhf7gtuUawPd5unhiekEH/Iv2KeY5YWva4k7FyngUMilc6rcEwD8BuC7k5ixajHzGKhdP1lsi3lSvrbymAIrLoRDdn0eRG70X1hV7MtGnK+/77dmNpoefqZKzgbajDwCfGJYh5FnPsnoauC7of3fQ01H9kcZ4CPUgpyLNo4YVaerqq6B6vAuhfzyKoDSGLoDJyZFlauhp9KVpEhMiC24SdG5s2pBERycpYY7qTtwkTdBJkziKoDCGLoDKSyZL9xXh4MV7Q20giC7wY/5+3vhz8Yjz8ONXB5XgxXtAxSCJL7JfM6v9ifAuwb0Wvb0eB+Lej+UW7fdF3ZAgs3KHfkUSWtF+Mr4ll+iq93gpvCZH6DG3zLKW/kcg9Bq7s6jRcqaXoN6M3og1t00HPrEQbHWfo2FoNq8smMbKQPls1JiAh/Iow1gH9pDZibVIai6CL6FX56f5uQDJZ4KWyg3OTJGW/GN+SLDSgPs3okX7+6uZhBBZgaPQieOzJEl81RnCyMHLZzlDb3CNh+z4NytrjmB58Xp+X7AwkkwV+MZ6/GL9qW/Evxnvj+0EsTMvk8SteZ3ovAMYk41pYgyFZwtsRN6YFIwuSMkcWqMO158R6v2y9MT1dGs+ty0FkqbOn3PXehmLRa0VkIWRIAbBGAvKg4fDYk8QTBNJSyMLr8IjVG9PrJbLUfm8IyAK/GL/77EmS8l+MByO6q00PbClZwGBad3CfL4dzFu5p2jpnyZHFeQo4pjpYG7F6I3q9RJbae8oBWdbuelWNXJghgc19isnSeyj2WL0H8izL/jTUi+BepBdcRwmSJriAb295St3yxnoSeTG+95FMFkH/QcgiqAwhi6AycmSZnlkwiSIiWZmcng3JsnD+gkkQEcnKZHPOfMptSFAK8C6GLLJNmKAMQJbO2iZM0LEAstTeJuzS1SWzW+V333iG5NuvP6mmFi86DUEvgjxLnTlL7Ov+toVVCjoWNGepS5Y7hl8IArZX3fCFRLbK3C7EwiQYlvdXxzoPSWQ5Pt9UN7/4i2DTZPh/ePSE0+gDlBCpF5HsWZKCn2AXJrNKm40zAcElfoxfGTBxrXYxl8W0UDASxq3gsfcsPN7F6ECsizmw8Sn2ULcNdRWtHCMhoDzqUGAVqz9WB6X1TnxuMlkGtm5QO04fI7nnnZLgJxhwHBA0AnvNAgOEfKCQN2wQPOTKQpq9soFIaED4ZEFMmIbEgDzYew4qg/7oz6DuLLCfThdA+phnDn0sC+b7NOifPY7p+fPofCSTZe3uV9XRxXkS+JWQUs/iRyqMRHNXWzjIfOC9Dl2VSAAyJCMG1zWGgjz9qa9i44EG7e8ZerI53ezVzciCfc+TJTwHkF6Nz00my7rdr6ljV86TrNPkKfUsOCpuoDkx8LbCBy+W5mEJAC7eGy3rWTygrgGdD6rQbj680qYHaZXIEimn4dNsP201eb2+IAv8GNW2zz4luWf4xXLPogfNXlXuqtNpeJXV/hUxDRhoP9dBsmA66vO28seBbtZqSAj81CDjOg/Gj7GeMI0RM6LXF2S5nuj+IvDBQ8/SjYh5lm5HEllmrizmvmf587eeV0fnppxGBBXJohVbzyG6CdyLdCvjMyCy4DZhVcgCePb4gWDLjceP7HU5gl7F9Oy8bBMmqIak25CgPyFkEVRGjiwQpnB2bFJEJCdjjaZ4FkE1yG1IUBlCFkFlJJNlvXzP0ndIIkvz8iX1F2//S/AN7sCOjcXf4Aq6Hklkia0NVYnBtWGIfsFv5cDaZDE0RShe4NN19MBaT10QWepsEwZhlb/33D+qP3r5lyQ3/fOjanj0pNOIoPLa0HKiPUTtppXidgLIkrRNWHYh8XZ9W2rtWcBIuCyPBrOfgy6wyW8Hhiu0sQVFXw+PujP/G0HvkV3Ec22irilbvGCJhIBPqj8oZ/vpA7P8yjKmmTBSx6q8nq5nYMD0s1uIB2RJ2yZs96vq08V5krW7q0bKcbK4gTLGtYYG44BecPW6spgHoGMggFPEMkFZA96mbydbPwevC/Mw7IDKQr99JTboiqWBnulbTA8+kdxdAvIsdecs+RjclxLI4gaLD6bT81eiE50fRJphGWZoTwC8+rUYw+TbjNXPwcmCWTmyAFF5HWB8TjzWx5we9DHi0ToZbZvgVg9+qkYWbiQEpHFimGNmnFgZa+B8mzFdDsznesWexSFzLnnPgugjsqze/ora2zhHsmr7hmKywIDpqyo7ZzFDGCGLGUx2Ndo0KOPScKAjZIFPuopNvb4t41HoNuB0tGAdiCKyGBLk5ixYL0uDOYkrnNfrI7Lct2OTOjAzQXLfjo3FZOkXxDxLj2DlbkN9BO9FnCfqESSR5eLVJfWHLz0W7KLwBy/+Qo1rEgl6F0lkEfQnhCyCyhCyCCqDyII7Py2cv6guXFwUEcnJVHMuXBuabs6b7/9FRLLSmJqtv6ecoD8Bt6Haa0OC/oRMcAWVkUyWn+zZEvze0L999f+ohSvye0O9jCSynLs4Hw2r/Ei+7u9pJJEltjZUGoPLVod7B9kVdLaSHkV3x+4mkWVkdlJ9ef3D6veff5QE/t9y5qjTiKAvyFIMHu7QjWibZ6kU/DSAcSY4sDDIPMbD6TlS0eDCUj/GglBZFo/iLMDjWHyUAJbLrwDn8qBt3H5V9wc2KeT1BzEpJi1LFk8a3pcwfqZ7V6KTyQK/GP/BxBmSKr8YT7EdjhAwoJwY5rgVWVxZTONlbVASDyZCoxUFGEXyoB2XBsSw9YORLRH8LQTLFpMl7B87ny5FMlnW7Nykfjc/RXLfzleqz1lcgBBFnrE0rsfJkk0LygJcJB5dze4KBn1Myxoql8fa8fV7AkA+6ltSFZMF2+s5stTZJiz1NlTXs8DVnTUiDni2rHmVpKUX0eARbFlEiJojCy8Px31IlqRtwoAsdw+/rN469gnJXW+/0J45i87BuQhtbRohS6ws5Nn6QaANX1d+rhDJKyJL0N6gJiYnR/aT95PVpevvyznL/Xu2qM+uLZJIWGXvI4ksE5cuaLK8FtyGVu/arA40x52GoBeRRBbA2p2b1a1vrCcZ2LbB5Qh6FclkEfQfhCyCyhCyCCojR5bR8Wk1OiEikpfx7NamV65cVV98cU1EJCfN2Xm5DQmqgW5DdbYJE/QngCy1twkDnJhvqq1jn5FAjIugtwFkgVdCam0TNndlUX1ry5Pq7/dvJfnem8+oU+dnnYagF0Gepc6cJbbqXGVrU0F3I/foXJUs/2bj/1b37txE8sevPq52N844jQ4HW10mxNIQRXmAinvrdjuSyfKd3zytHjm0h+Tbrz+lyXLaaXQ4yoxfCyVxND2EZLJAiMKpa5dIYBW6WjwLxHuwWBI30BToxI55fEouhkWLNbiPIeGGy5dloL5AvitLBMK+DZjfjDZlc3m+Xmon10jvIZksEPw0fOIwSZXgp2wcrYEzBKR5gzhC0RXLg4sweAjzY2SJlWVgfSEisH7YLCjniIY6UC+SiyLneFu9jXTPkhLdb62sD/3VSVclhiqiIeF/rmMizGLEiKRFyxoFC9YXMrpL8xFykBXxLEgMIUt1skDA9sHZSZI6AduBZyGA0XW6NlbOMIQSsiDhygyIhHTHpj33yfuWjwEWsiSRJfsqyL0VXgVBspgBZlc+poOhuBew/6MeECJGFqanyWbJEivLAH0pnbPEYoBjZIE+aX1kWA9j5W5DXYKoZxEYEFnqbOZz4eqS+tMt4Te4X9/8uCFR94N5vT65vVQFkEXWhgSVAGSRbcIElUCepc6cRdCfyE1wFxevqKWlqyIiOclFykGc5cTkjIhITsYnMzG4chsStELuNiRkEbSCkEVQGclkgbUhvrXp3duGXI6gV5FEltFLC2pdZheF/7b/HbVfdlHoaaSRJbI21LYYXLbg2EjeB5QvOHYi2IJkFyGJLMfmm8G2pijDY6ecRhsQrFILOgFElpXYU46HIuDSfy6MwOiN2GV/nR5f9bWeY9AFUdl6dRrEwpj/obyrD0IJXBvYvg++ygRFaQShDSzcwa9E2zImbdD1X2dina3bAG9i+8f3v/N6newJLZL3lIOf6v14ZoKk9Kd6W5HFWYGnGT2mn4eNIbFF8ZYDn2gYTLPGCPQoDgWQvx1AP7zBGTFcEZ5m+876gsFX0Tb0JxHCpaG+SSo6385A8pzF/Aj41ChJ6Y+AtyBLy7RSsvgr0RqQp+FxqGeg67VXcvyKbkWM1mm8DUeCaBucmF6v0wnC0bYJbt0Y3OsnizWaNxY3mj/2ngWOdZkRftXnUU6MCmQJPAsiQhbuWaJlOgvJZBnYOqR2nD5Gcs87L5U8DekBclda4ZalmAaDp3Xj42eNNuDmNbaOOFl4u3jL8/MELWRAixhZsC8w/4C+l5IFjnJtRMiij6Aeq+fa6mAkk2Xt7lfV0cV5krW7NpeQpZ3gBhKsFJLIMtbiNrR/GcgSXKEog8NClhuAJLIAbnvz2eDr/j/Tcn5Jfsmsl5FMFkH/ISDLWKOpLi8tuSyBIMTM3LxaOK/JAtuEQTTU9MycyxIIPK5cWdL8aKpLi5ftqyBT03MmdA6i/M2vg2d+MVyk/2R6Zl5PT6YNN2B7U0MW2CbswoVFE+oPcbiT0zM6c6pQzo41ouk3QqQvreV6+zOuSTLVnDPe5erVL9T/B3cNNkO4y6kLAAAAAElFTkSuQmCC;" vertex="1" parent="1">
          <mxGeometry x="1190" y="160" width="139" height="366" as="geometry" />
        </mxCell>
      </root>
    </mxGraphModel>
  </diagram>
</mxfile>
